<svg width="551" height="414" viewBox="0 0 551 414" fill="none" xmlns="http://www.w3.org/2000/svg">
<path fill-rule="evenodd" clip-rule="evenodd" d="M68.8693 0H-1.25021e-05V68.8693H68.8693V0Z" fill="#FFFF22"/>
<path fill-rule="evenodd" clip-rule="evenodd" d="M137.738 68.8693H68.869V137.739H137.738V68.8693Z" fill="#FFFFB0" fill-opacity="0.15"/>
<path fill-rule="evenodd" clip-rule="evenodd" d="M275.477 68.8693H206.608V137.739H275.477V68.8693Z" fill="#FFFF22"/>
<path fill-rule="evenodd" clip-rule="evenodd" d="M413.216 68.8693H344.346V137.739H413.216V68.8693Z" fill="#FFFFB0" fill-opacity="0.15"/>
<mask id="mask0_33_47" style="mask-type:luminance" maskUnits="userSpaceOnUse" x="343" y="343" width="72" height="71">
<path d="M414.352 343.841H343.824V413.267H414.352V343.841Z" fill="white"/>
</mask>
<g mask="url(#mask0_33_47)">
<path fill-rule="evenodd" clip-rule="evenodd" d="M413.216 344.346H344.346V413.216H413.216V344.346Z" fill="#FFFF22"/>
</g>
<path fill-rule="evenodd" clip-rule="evenodd" d="M550.96 68.8693H482.091V137.739H550.96V68.8693Z" fill="#FFFFCA" fill-opacity="0.05"/>
<mask id="mask1_33_47" style="mask-type:luminance" maskUnits="userSpaceOnUse" x="481" y="343" width="70" height="71">
<path d="M551 343.841H481.941V413.267H551V343.841Z" fill="white"/>
</mask>
<g mask="url(#mask1_33_47)">
<path fill-rule="evenodd" clip-rule="evenodd" d="M550.96 344.346H482.091V413.216H550.96V344.346Z" fill="#FFFF22"/>
</g>
<path fill-rule="evenodd" clip-rule="evenodd" d="M550.96 206.608H482.091V275.477H550.96V206.608Z" fill="#FFFFB0" fill-opacity="0.15"/>
<path fill-rule="evenodd" clip-rule="evenodd" d="M413.216 206.608H344.346V275.477H413.216V206.608Z" fill="#FFFFCA" fill-opacity="0.05"/>
<path fill-rule="evenodd" clip-rule="evenodd" d="M275.477 206.608H206.608V275.477H275.477V206.608Z" fill="#FFFFB0" fill-opacity="0.15"/>
<path fill-rule="evenodd" clip-rule="evenodd" d="M482.091 137.739H413.216V206.608H482.091V137.739Z" fill="#FFFF22"/>
<path fill-rule="evenodd" clip-rule="evenodd" d="M344.346 137.739H275.477V206.608H344.346V137.739Z" fill="#FFFF22"/>
<path fill-rule="evenodd" clip-rule="evenodd" d="M206.608 137.739H137.738V206.608H206.608V137.739Z" fill="#FFFF22"/>
<path fill-rule="evenodd" clip-rule="evenodd" d="M206.608 0H137.738V68.8693H206.608V0Z" fill="#FFFF22"/>
<path fill-rule="evenodd" clip-rule="evenodd" d="M344.346 0H275.477V68.8693H344.346V0Z" fill="#FFFF22"/>
<path fill-rule="evenodd" clip-rule="evenodd" d="M344.346 275.477H275.477V344.346H344.346V275.477Z" fill="#FFFF22"/>
<path fill-rule="evenodd" clip-rule="evenodd" d="M482.091 0H413.216V68.8693H482.091V0Z" fill="#FFFF22"/>
<path fill-rule="evenodd" clip-rule="evenodd" d="M482.091 275.477H413.216V344.346H482.091V275.477Z" fill="#FFFFB0" fill-opacity="0.15"/>
</svg>
