<svg width="1920" height="800" viewBox="0 0 1920 800" fill="none" xmlns="http://www.w3.org/2000/svg">
<g clip-path="url(#clip0_128_3363)">
<rect width="1920" height="800" fill="#2820D6"/>
<g opacity="0.08">
<path d="M1725.55 832H1725.26C1695.25 831.536 1661.85 824.983 1633.65 814.006C1611.22 805.283 1582.06 789.864 1570.45 765.959C1558.97 738.76 1575.47 710.515 1591.43 683.198C1609.07 653.002 1625.72 624.478 1607.7 597.423C1497.23 499.961 1309.31 524.938 1172.04 592.922L1171.79 593.006C1083.96 612.073 1015.83 621.632 963.527 622.24C915.128 622.789 881.162 615.628 859.706 600.327C836.864 584.039 828.341 558.909 832.877 521.248C836.91 487.717 850.839 448.105 865.583 406.172C886.478 346.717 908.094 285.244 907.647 227.765C907.132 162.205 876.809 114.259 814.949 81.1919C703.304 8.95257 562.734 44.5445 438.693 75.9482C431.167 77.8565 423.698 79.748 416.298 81.5973L416.16 81.6226C358.665 89.273 293.884 89.7965 228.794 83.1426C166.293 76.7504 103.494 63.8055 47.2016 45.6929L46.961 45.6169L46.8121 45.4649C15.298 12.3893 -9.81244 -27.3993 -23.8683 -66.5631C-39.6311 -110.456 -41.2349 -152.22 -28.5078 -187.348L-26.7322 -187.001C-56.3332 -105.288 -4.90948 -11.2542 48.1639 44.5361C164.838 82.0279 302.224 95.4034 415.759 80.3053C423.137 78.4561 430.583 76.573 438.086 74.6731C562.585 43.1512 703.705 7.42421 816.072 80.1449C878.379 113.448 908.942 161.749 909.457 227.765C909.904 285.421 888.265 346.987 867.335 406.518C837.563 491.204 811.856 564.339 860.966 599.365C882.056 614.404 915.609 621.471 963.481 620.897C1015.6 620.298 1083.52 610.764 1171.12 591.748C1243.13 556.106 1323.14 534.776 1396.44 531.702C1437.79 529.963 1476.26 534.075 1510.79 543.912C1548.7 554.712 1581.79 572.445 1609.18 596.62L1609.3 596.756C1627.77 624.385 1610.14 654.556 1593.11 683.73C1577.29 710.819 1560.92 738.828 1572.19 765.528C1583.58 788.994 1612.37 804.194 1634.51 812.807C1662.38 823.649 1695.35 830.134 1725.01 830.632C1767.26 809.893 1801.61 779.486 1834.83 750.075C1855.36 731.912 1876.58 713.124 1899.38 696.877L1900.66 697.849C1877.92 714.044 1856.72 732.799 1836.24 750.937C1802.87 780.474 1768.36 811.025 1725.79 831.873L1725.55 831.992V832Z" fill="white"/>
<path d="M1739.83 739.106C1700.6 739.106 1657.17 728.754 1628.38 712.111C1614.36 703.996 1604.37 694.935 1598.7 685.174C1584.37 660.483 1598.09 632.297 1611.37 605.048C1626.33 574.353 1640.46 545.356 1616.16 522.262C1516.68 427.688 1349.98 479.898 1200.04 543.44C1094.15 588.312 1018.58 610.216 968.258 610.216C949.861 610.216 934.854 607.294 922.952 601.493C871.689 576.524 883.946 500.721 898.151 412.944C907.899 352.696 918.954 284.4 910.179 223.923C900.133 154.63 865.56 106.263 804.514 76.0496C698.31 23.4934 587.833 54.4158 480.987 84.3164C462.338 89.5348 443.047 94.939 424.305 99.7184C360.212 116.066 285.659 114.04 227.855 110.451C173.166 107.056 117.917 98.2407 68.0736 84.975L67.8445 84.9159L67.6841 84.7808C41.0615 61.9564 17.8069 34.6481 0.440314 5.80302C-18.1634 -25.094 -29.3784 -56.9958 -32.0131 -86.4404C-33.3878 -101.792 -32.3224 -116.763 -28.84 -130.941L-27.03 -130.704C-30.4781 -116.645 -31.532 -101.783 -30.1688 -86.5333C-25.0711 -29.5694 12.8925 35.6698 68.9213 83.759C118.547 96.9572 173.556 105.722 228.004 109.1C285.614 112.68 359.925 114.698 423.698 98.4349C442.417 93.664 461.685 88.2682 480.334 83.0497C587.615 53.0225 698.55 21.9735 805.533 74.918C867.061 105.368 901.885 154.056 912.001 223.771C920.798 284.4 909.732 352.771 899.972 413.096C885.836 500.425 873.636 575.848 923.96 600.353C945.153 610.68 976.22 611.584 1018.91 603.123C1065.14 593.961 1124.09 574.049 1199.13 542.249C1265.14 514.282 1342.77 484.229 1418.18 473.421C1458.47 467.645 1494.85 468.05 1526.29 474.628C1562.11 482.118 1592.84 497.858 1617.61 521.417C1642.53 545.095 1628.23 574.429 1613.1 605.487C1599.94 632.491 1586.34 660.424 1600.38 684.625C1605.93 694.175 1615.72 703.059 1629.5 711.03C1660.9 729.193 1709.93 739.782 1751.62 737.409C1770.51 726.922 1788.58 713.622 1806.84 696.759C1821.52 683.257 1835.49 668.649 1848.99 654.522C1866.69 636.012 1884.99 616.878 1905.06 600.066L1906.43 600.961C1886.42 617.705 1868.16 636.814 1850.49 655.299C1836.98 669.443 1822.99 684.068 1808.27 697.604C1789.84 714.619 1771.6 728.028 1752.5 738.608L1752.28 738.726L1752.02 738.743C1748.01 738.98 1743.93 739.09 1739.81 739.09L1739.83 739.106Z" fill="white"/>
<path d="M1750.71 647.42C1718.42 647.42 1683.93 640.538 1658.48 628.379C1644.19 621.556 1633.6 613.492 1626.97 604.414C1610.36 581.632 1620.23 553.75 1629.76 526.779C1640.49 496.397 1650.64 467.696 1624.65 447.109C1518.2 362.778 1364.51 423.44 1228.2 493.906C1125.09 547.205 1052.24 573.028 1003.81 573.028C990.495 573.028 979.028 571.077 969.279 567.209C917.18 546.521 920.066 473.058 923.4 387.983C925.691 329.592 928.291 263.416 912.792 205.987C895.036 140.199 856.236 96.0281 794.17 70.9491C686.569 27.4788 584.615 63.9236 486.017 99.1778C468.399 105.477 450.185 111.987 432.428 117.848C370.683 138.198 296.566 140.208 246.185 139.954C189.778 139.667 136.888 134.39 89.0039 124.282L88.7977 124.24L88.6373 124.13C29.2405 83.3451 -15.0579 23.6621 -26.9831 -31.6637C-30.099 -46.1285 -30.8207 -60.5426 -29.1138 -74.5176L-27.2809 -74.3994C-28.9763 -60.5426 -28.2546 -46.2298 -25.1616 -31.8833C-13.3052 23.1048 30.7069 82.4331 89.7256 122.999C137.403 133.047 190.041 138.291 246.208 138.578C296.417 138.84 370.271 136.839 431.684 116.59C449.417 110.746 467.62 104.236 485.227 97.9449C584.248 62.5388 686.626 25.9336 795.064 69.7416C857.634 95.0233 896.743 139.498 914.602 205.709C930.136 263.289 927.535 329.55 925.244 388.009C921.922 472.635 919.058 545.711 970.161 566.002C991.686 574.547 1021.56 573.441 1061.5 562.616C1104.74 550.896 1158.93 528.054 1227.15 492.783C1287.16 461.759 1358.09 428.008 1429.14 412.843C1467.1 404.745 1502.02 402.811 1532.95 407.118C1568.17 412.024 1599.49 425.163 1626.01 446.172C1652.69 467.307 1642.43 496.355 1631.56 527.108C1622.12 553.826 1612.36 581.455 1628.62 603.764C1635.1 612.639 1645.49 620.543 1659.51 627.239C1692.14 642.835 1739.85 649.649 1778.29 644.22C1796.14 632.998 1812.36 619.158 1827.85 601.932C1840.14 588.269 1851.67 573.627 1862.84 559.466C1877.83 540.459 1893.33 520.801 1910.8 503.288L1912.27 504.09C1894.86 521.544 1879.38 541.168 1864.42 560.142C1853.24 574.319 1841.7 588.978 1829.37 602.675C1813.72 620.07 1797.34 634.036 1779.29 645.36L1779.1 645.478L1778.86 645.512C1769.88 646.795 1760.41 647.412 1750.73 647.412L1750.71 647.42Z" fill="white"/>
<path d="M1761.61 557.096C1736.21 557.096 1709.94 552.815 1688.58 544.641C1674.05 539.076 1662.84 532.017 1655.27 523.64C1636.38 502.775 1642.36 475.179 1648.15 448.496C1654.67 418.427 1660.84 390.029 1633.14 371.933C1519.73 297.845 1379.02 366.96 1256.33 444.342C1138.01 518.979 1061.51 547.123 1015.6 532.895C962.668 516.497 956.173 445.363 948.635 362.999C943.469 306.475 937.603 242.401 915.391 188.029C889.937 125.737 846.899 85.7623 783.813 65.8173C674.768 31.34 581.211 73.3242 490.747 113.932C474.263 121.329 457.217 128.979 440.526 135.937C388.404 157.664 325.124 164.867 264.524 169.41C212.802 173.286 159.328 171.259 109.909 163.55L109.714 163.516L109.554 163.431C47.3161 130.204 -3.07664 76.44 -21.9782 23.1155C-26.801 9.51201 -29.2983 -4.35323 -29.4128 -18.0918H-27.58C-27.4654 -4.47989 -24.991 9.27558 -20.2026 22.7693C-1.42705 75.7561 48.6335 129.182 110.47 162.249C159.66 169.916 212.86 171.918 264.329 168.059C324.734 163.524 387.785 156.355 439.621 134.755C456.289 127.806 473.323 120.164 489.796 112.767C580.661 71.9816 674.62 29.8117 784.547 64.5676C848.159 84.6815 891.541 124.935 917.155 187.632C939.436 242.156 945.302 306.306 950.468 362.907C957.96 444.823 964.432 515.576 1016.31 531.645C1038.16 538.417 1066.86 535.293 1104.04 522.103C1144.31 507.816 1193.73 482.045 1255.14 443.311C1309.15 409.239 1373.36 371.781 1440.04 352.258C1475.67 341.83 1509.15 337.566 1539.56 339.601C1574.2 341.915 1606.09 352.453 1634.36 370.92C1662.81 389.506 1656.57 418.258 1649.98 448.707C1644.25 475.137 1638.31 502.471 1656.8 522.889C1664.2 531.063 1675.19 537.978 1689.44 543.433C1723.31 556.403 1769.69 559.443 1804.89 551.024C1821.56 539.127 1836.33 524.35 1848.8 507.098C1858.82 493.225 1868.04 478.481 1876.97 464.219C1889.13 444.772 1901.71 424.667 1916.48 406.512L1918.05 407.204C1903.34 425.3 1890.78 445.372 1878.63 464.785C1869.69 479.064 1860.46 493.824 1850.41 507.731C1837.82 525.16 1822.88 540.089 1806.01 552.105L1805.86 552.215L1805.66 552.266C1792.17 555.517 1777.05 557.096 1761.62 557.096H1761.61Z" fill="white"/>
<path d="M1079.76 500.485C1073.45 500.485 1067.52 499.852 1061.93 498.594C1008.17 486.485 992.281 417.691 973.884 338.037C961.26 283.37 946.94 221.416 918.004 170.084C884.851 111.288 837.575 75.5101 773.47 60.6906C662.913 35.1388 577.626 82.6876 495.158 128.666C479.911 137.169 464.137 145.959 448.626 154.032C401.739 178.418 341.242 189.995 282.842 198.879C232.884 206.478 180.304 207.846 130.793 202.83L130.633 202.813L130.484 202.754C65.531 176.983 9.03243 129.147 -16.9716 77.9082C-23.4668 65.1153 -27.7512 51.8074 -29.7101 38.356L-27.8887 38.2124C-25.9412 51.5541 -21.6912 64.7522 -15.2647 77.4353C10.5675 128.345 66.6765 175.877 131.194 201.513C180.453 206.487 232.747 205.119 282.452 197.561C340.646 188.703 400.925 177.169 447.549 152.934C463.048 144.878 478.8 136.088 494.036 127.593C576.882 81.4041 662.546 33.6442 773.997 59.4071C838.651 74.3448 886.295 110.384 919.676 169.569C948.693 221.036 963.024 283.075 975.671 337.809C993.965 417.024 1009.77 485.446 1062.45 497.302C1084.64 502.301 1112.15 497.158 1146.58 481.604C1183.86 464.75 1228.53 436.048 1283.11 393.853C1331.13 356.733 1388.63 315.568 1450.94 291.688C1484.23 278.929 1516.27 272.334 1546.14 272.097C1580.18 271.819 1612.67 279.756 1642.68 295.673C1672.89 311.7 1670.69 340.165 1668.35 370.294C1666.32 396.437 1664.23 423.475 1684.96 442.018C1693.29 449.466 1704.86 455.394 1719.35 459.641C1754.44 469.918 1799.47 469.191 1831.48 457.843C1847.17 445.084 1860.05 429.757 1869.73 412.27C1877.53 398.185 1884.48 383.332 1891.21 368.96C1900.51 349.082 1910.12 328.538 1922.12 309.733L1923.79 310.307C1911.83 329.045 1902.23 349.564 1892.94 369.399C1886.2 383.788 1879.25 398.658 1871.42 412.776C1861.63 430.45 1848.6 445.953 1832.7 458.839L1832.59 458.94L1832.43 458.999C1799.97 470.551 1754.24 471.311 1718.66 460.891C1703.87 456.559 1692.05 450.496 1683.53 442.871C1662.35 423.923 1664.47 396.623 1666.51 370.21C1668.81 340.461 1670.99 312.35 1641.59 296.763C1521.22 232.9 1393.5 310.476 1284.43 394.782C1191.85 466.346 1125.97 500.485 1079.73 500.485H1079.76Z" fill="white"/>
<path d="M1119.3 465.053C1115.52 465.053 1111.84 464.8 1108.27 464.285C1053.69 456.474 1028.41 390.019 999.143 313.068C979.05 260.267 956.288 200.415 920.627 152.14C879.777 96.8396 828.261 65.2502 763.137 55.5648C650.953 38.8793 573.834 92.0434 499.248 143.46C485.341 153.044 470.964 162.957 456.725 172.127C412.61 200.542 353.305 216.045 301.171 228.348C255.371 239.157 202.264 250.024 151.573 242.104C119.922 237.155 87.4566 223.586 57.6952 202.847C30.2707 183.738 6.19125 159.478 -11.9428 132.702C-20.0991 120.669 -26.1591 107.918 -29.9852 94.8046L-28.1867 94.5175C-24.3949 107.521 -18.3808 120.162 -10.3047 132.094C20.2128 177.152 78.865 229.362 151.951 240.778C202.206 248.631 255.039 237.814 300.609 227.056C352.56 214.795 411.659 199.351 455.511 171.106C469.727 161.952 484.092 152.047 497.988 142.472C572.907 90.819 650.38 37.4185 763.492 54.2391C829.178 64.009 881.105 95.8179 922.231 151.498C957.995 199.908 980.791 259.836 1000.91 312.713C1030.02 389.234 1055.15 455.317 1108.62 462.968C1131.14 466.185 1157.48 459.041 1189.16 441.123C1223.46 421.71 1263.36 390.07 1311.15 344.413C1353.18 304.244 1403.95 259.372 1461.88 231.135C1492.84 216.045 1523.42 207.12 1552.78 204.603C1586.23 201.732 1619.29 207.069 1651.03 220.436C1683 233.904 1684.82 262.066 1686.76 291.89C1688.43 317.754 1690.17 344.505 1713.14 361.157C1722.37 367.853 1734.54 372.802 1749.3 375.858C1784.52 383.163 1831.83 382.546 1858.12 364.678C1875.78 352.688 1883.91 334.778 1890.72 317.459C1896.35 303.163 1901.07 288.183 1905.64 273.693C1912.03 253.402 1918.64 232.418 1927.85 212.98L1929.58 213.427C1920.41 232.798 1913.81 253.748 1907.43 274.005C1902.86 288.512 1898.13 303.509 1892.49 317.847C1885.6 335.352 1877.37 353.456 1859.37 365.683C1832.55 383.897 1784.51 384.581 1748.8 377.167C1733.74 374.043 1721.31 368.985 1711.86 362.128C1688.37 345.097 1686.62 318.084 1684.93 291.958C1683.01 262.522 1681.22 234.715 1650.12 221.618C1522.79 167.981 1408.04 254.01 1312.6 345.24C1227.5 426.591 1165.57 465.07 1119.31 465.07L1119.3 465.053Z" fill="white"/>
<path d="M1159.44 430.112C1157.81 430.112 1156.21 430.061 1154.62 429.96C1099.23 426.447 1064.55 362.331 1024.41 288.09C996.864 237.147 965.647 179.406 923.262 134.179C874.714 82.3747 818.96 54.9736 752.804 50.4138C638.868 42.5607 569.802 101.433 503.017 158.363C490.553 168.986 477.677 179.963 464.824 190.198C425.452 221.559 369.171 241.529 319.511 257.784C275.992 272.029 226.916 276.471 179.456 280.761L172.732 281.369C141.195 284.24 107.642 275.407 73.0001 255.124C37.3849 234.276 9.90315 206.816 -6.89062 187.453C-16.708 176.13 -24.555 163.936 -30.2369 151.211L-28.4957 150.789C-22.871 163.413 -15.0813 175.505 -5.35558 186.727C15.2758 210.531 89.0951 287.6 172.491 280.018L179.216 279.41C226.55 275.128 275.488 270.704 318.755 256.543C368.254 240.339 424.329 220.436 463.472 189.269C476.303 179.051 489.179 168.082 501.619 157.468C568.714 100.285 638.089 41.1421 752.964 49.0627C819.681 53.6563 875.882 81.2517 924.763 133.403C967.263 178.756 998.525 236.573 1026.11 287.584C1066.03 361.402 1100.5 425.163 1154.77 428.6C1177.62 430.053 1202.79 420.891 1231.71 400.6C1263.04 378.62 1298.19 344.049 1339.14 294.921C1375.17 251.705 1419.23 203.126 1472.79 170.531C1501.42 153.119 1530.55 141.855 1559.37 137.067C1592.23 131.612 1625.86 134.331 1659.35 145.157C1693.07 156.058 1698.93 183.924 1705.12 213.419C1710.5 239.005 1716.06 265.468 1741.29 280.246C1751.39 286.165 1764.15 290.125 1779.21 292.034C1821.26 297.345 1863.67 289.078 1884.73 271.455C1901.61 257.345 1908 237.932 1911.69 222.598C1915.18 208.065 1917.71 192.925 1920.15 178.291C1923.6 157.612 1927.18 136.223 1933.55 116.168L1935.33 116.48C1928.99 136.468 1925.42 157.814 1921.98 178.46C1919.54 193.119 1917 208.268 1913.5 222.843C1909.76 238.354 1903.28 257.995 1886.11 272.359C1868.96 286.705 1838.01 294.981 1804.5 294.981C1796.07 294.981 1787.47 294.457 1778.89 293.368C1763.52 291.426 1750.48 287.372 1740.13 281.31C1714.33 266.203 1708.72 239.477 1703.29 213.63C1697.17 184.506 1691.39 156.995 1658.59 146.398C1524.26 102.978 1422.5 197.468 1340.68 295.622C1264.37 387.156 1206.57 430.086 1159.41 430.095L1159.44 430.112Z" fill="white"/>
<path d="M1202.74 392.29C1146.48 392.29 1102.64 329.812 1051.92 257.514C1016.62 207.221 976.634 150.206 927.226 108.458C870.716 60.6984 810.3 40.0272 742.552 45.271C623.06 54.5173 560.547 118.693 500.085 180.748C491.241 189.834 482.088 199.224 472.912 208.276C437.973 242.779 384.865 267.123 337.829 287.237C292.351 306.684 239.403 315.035 193.593 320.642C160.922 324.644 125.513 318.387 88.351 302.056C56.4474 288.031 25.2426 267.343 -1.86112 242.247C-13.3739 231.59 -23.008 219.954 -30.4999 207.66L-28.8274 207.102C-21.3928 219.296 -11.8389 230.83 -0.429181 241.402C46.4353 284.797 121.939 328.047 193.295 319.316C238.934 313.726 291.686 305.409 336.912 286.072C383.788 266.025 436.701 241.774 471.446 207.474C480.61 198.43 489.752 189.04 498.595 179.971C528.872 148.897 560.18 116.759 598.373 91.8149C641.297 63.772 688.402 48.1166 742.369 43.9368C810.758 38.6423 871.678 59.4655 928.612 107.58C978.157 149.454 1018.22 206.537 1053.56 256.906C1104.26 329.17 1148.07 391.589 1203.59 390.948C1226.54 390.686 1250.23 379.784 1276.01 357.636C1303.97 333.612 1333.79 296.931 1367.17 245.506C1397.21 199.241 1434.54 146.955 1483.73 110.012C1510.01 90.2696 1537.7 76.6831 1566 69.6238C1598.24 61.5765 1632.46 61.6948 1667.69 69.97C1703.15 78.2959 1713.03 105.866 1723.49 135.049C1732.56 160.364 1741.95 186.549 1769.45 199.435C1780.39 204.561 1793.74 207.55 1809.14 208.301C1850.92 210.353 1891.99 198.312 1911.38 178.325C1923.72 165.616 1930.69 149.091 1932.7 127.821C1934.1 113.01 1934.45 97.6836 1934.79 82.8642C1935.28 61.8299 1935.78 40.0778 1939.27 19.4404L1941.1 19.6093C1937.6 40.1707 1937.11 61.889 1936.63 82.8895C1936.28 97.7258 1935.94 113.069 1934.53 127.913C1932.49 149.438 1925.41 166.182 1912.87 179.11C1902.89 189.387 1887.56 197.696 1868.52 203.142C1850.1 208.411 1829.52 210.657 1809.01 209.653C1793.31 208.884 1779.66 205.827 1768.45 200.575C1740.34 187.402 1730.86 160.964 1721.7 135.387C1711.37 106.575 1701.62 79.3599 1667.11 71.2535C1525.81 38.0597 1437.02 141.01 1368.81 246.089C1335.35 297.632 1305.45 334.406 1277.39 358.522C1251.23 380.992 1227.1 392.037 1203.6 392.307C1203.32 392.307 1203.02 392.307 1202.73 392.307L1202.74 392.29Z" fill="white"/>
<path d="M1240.46 361.605C1185.99 361.605 1134.39 304.202 1074.98 238.144C1032.51 190.924 984.375 137.397 928.541 98.2668C864.585 53.4371 800.331 34.4209 732.125 40.1207C614.271 49.9665 561.22 120.559 509.911 188.83C500.541 201.302 490.849 214.196 480.998 226.356C451.74 262.463 403.707 291.105 356.155 316.682C309.52 341.77 261.819 356.319 214.394 359.933C178.652 362.66 140.105 358.177 102.943 346.988C66.3084 335.96 31.8158 318.684 3.19998 297.024C-10.054 287.001 -21.4637 275.914 -30.7427 264.092L-29.1504 263.417C-19.9516 275.146 -8.63355 286.131 4.51736 296.079C62.6311 340.064 142.98 364.011 214.21 358.59C260.651 355.052 309.36 340.182 355.09 315.593C402.482 290.1 450.343 261.568 479.44 225.663C489.28 213.521 498.96 200.635 508.33 188.171C559.869 119.605 613.16 48.7083 731.953 38.7781C800.732 33.0276 865.456 52.1704 929.836 97.2873C985.819 136.527 1034.01 190.113 1076.53 237.392C1138.07 305.823 1191.23 364.932 1247.11 359.95C1270.64 357.856 1293.47 344.666 1316.91 319.638C1342.29 292.524 1367.92 252.093 1395.24 196.033C1419.27 146.719 1449.89 90.7347 1494.71 49.4345C1518.65 27.3701 1544.88 11.4445 1572.65 2.11374C1604.3 -8.5174 1639.08 -11.0084 1676.05 -5.2833C1713.24 0.475584 1727.15 27.7416 1741.87 56.5951C1754.64 81.6488 1767.86 107.555 1797.65 118.55C1809.39 122.881 1823.35 124.891 1839.12 124.503C1881.27 123.473 1920.11 108.02 1938.07 85.1278C1949.23 70.9079 1954.65 52.8713 1953.75 32.9854C1953.06 17.8704 1951.25 2.3164 1949.49 -12.7226C1946.99 -34.0777 1944.42 -56.1591 1945.05 -77.3369L1946.88 -77.3032C1946.25 -56.1929 1948.83 -34.1537 1951.31 -12.8323C1953.08 2.22351 1954.89 17.7945 1955.57 32.9516C1956.48 53.0993 1950.98 71.3808 1939.65 85.8202C1921.38 109.109 1881.94 124.832 1839.17 125.871C1823.08 126.259 1808.84 124.216 1796.82 119.774C1766.4 108.543 1753.05 82.3835 1740.15 57.0849C1725.61 28.586 1711.88 1.66618 1675.67 -3.94915C1527.37 -26.9256 1451.55 84.486 1396.96 196.506C1344.3 304.54 1296.74 356.91 1247.31 361.309C1245.03 361.512 1242.75 361.613 1240.49 361.613L1240.46 361.605Z" fill="white"/>
<path d="M188.94 402.508C125.637 402.508 60.6723 384.606 8.25195 351.775C-6.78913 342.352 -19.9973 331.83 -30.9832 320.507L-29.4939 319.722C-18.5883 330.961 -5.49466 341.398 9.43186 350.745C74.3731 391.421 158.674 409.035 234.956 397.863C283.997 390.677 331.813 372.438 373.236 345.105C417.66 315.795 462.234 283.243 487.401 243.851C495.695 230.873 503.748 217.159 511.538 203.902C555.264 129.493 600.479 52.5584 721.403 33.6435C791.201 22.7253 860.198 37.6376 932.322 79.2417C995.041 115.416 1051.7 166.9 1101.69 212.312C1174.04 278.058 1236.53 334.837 1293.23 325.641C1317.1 321.774 1338.77 306.566 1359.46 279.165C1381.87 249.492 1402.73 206.123 1423.25 146.592C1435.02 112.402 1453.78 61.8975 1480.54 18.1655C1510.06 -30.0926 1544.4 -62.1127 1582.6 -77.0166C1613.63 -89.117 1647.92 -90.2738 1684.56 -80.4533C1719.54 -71.0803 1738.14 -45.6298 1756.1 -21.0152C1773.75 3.15183 1792 28.1464 1825.76 37.722C1838.27 41.2686 1852.82 42.2903 1869.02 40.7619C1911.64 36.7341 1948.3 18.0388 1964.68 -8.02816C1974.69 -23.9538 1978.16 -42.5561 1974.73 -61.8171C1971.97 -77.2783 1967.97 -93.0941 1964.11 -108.395C1958.64 -130.029 1953 -152.397 1950.75 -174.09L1952.58 -174.191C1954.82 -152.574 1960.46 -130.24 1965.92 -108.64C1969.79 -93.3306 1973.79 -77.4894 1976.55 -61.9945C1980.04 -42.4801 1976.51 -23.616 1966.35 -7.45396C1949.71 19.0268 1912.5 38.0176 1869.26 42.1045C1852.76 43.6667 1837.9 42.6196 1825.11 38.9887C1790.72 29.2357 1772.31 4.02157 1754.49 -20.365C1736.68 -44.7516 1718.27 -69.9657 1683.94 -79.1698C1647.81 -88.8552 1614.02 -87.7237 1583.46 -75.8091C1545.63 -61.0487 1511.56 -29.2398 1482.21 18.7312C1455.52 62.3704 1436.79 112.799 1425.02 146.938C1385.5 261.643 1343.75 318.852 1293.62 326.984C1289.41 327.668 1285.17 327.997 1280.91 327.997C1226.61 327.997 1167.7 274.47 1100.26 213.182C1050.34 167.82 993.746 116.404 931.188 80.3226C859.522 38.9887 791.018 24.1523 721.781 34.9861C601.785 53.7574 556.764 130.371 513.222 204.459C505.421 217.725 497.356 231.447 489.051 244.451C463.746 284.071 419.012 316.741 374.45 346.143C332.775 373.637 284.662 391.986 235.3 399.223C220.087 401.452 204.553 402.541 188.928 402.541L188.94 402.508Z" fill="white"/>
<path d="M180.542 446.249C164.47 446.249 148.329 445.236 132.371 443.192C90.0203 437.78 48.8492 425.105 13.3028 406.528C-3.59406 397.704 -18.5664 387.74 -31.2247 376.914L-29.8386 376.028C-17.2834 386.769 -2.41414 396.657 14.3567 405.413C85.1632 442.407 175.387 454.271 255.713 437.138C306.747 426.253 353.669 404.636 391.415 374.618C430.89 343.222 474.123 305.291 495.396 262.024C502.155 248.277 508.604 233.829 514.848 219.846C550.703 139.517 587.773 56.452 710.897 28.4851C781.727 12.3991 854.973 23.0893 934.841 61.1722C1004.3 94.29 1069.42 143.654 1126.88 187.209C1210.06 250.261 1281.89 304.717 1339.4 291.308C1363.63 285.659 1384.13 268.441 1402.08 238.659C1421.5 206.419 1437.61 160.12 1451.31 97.1188C1459.18 60.9442 1472.2 7.40013 1494.35 -39.6842C1518.8 -91.6324 1550.26 -127.115 1587.9 -145.151C1618.45 -159.793 1653.79 -163.348 1692.92 -155.706C1730.28 -148.411 1752.71 -123.365 1774.4 -99.1477C1795.72 -75.3353 1817.77 -50.7122 1853.94 -43.1548C1867.17 -40.3851 1882.33 -40.3513 1898.98 -43.0365C1941.56 -49.9101 1976.97 -72.2194 1991.37 -101.242C2000.04 -118.721 2001.57 -137.889 1995.77 -156.686C1990.9 -172.628 1984.67 -188.841 1978.64 -204.513C1970.27 -226.299 1961.6 -248.828 1956.52 -270.901L1958.33 -271.129C1963.4 -249.124 1972.05 -226.637 1980.41 -204.885C1986.44 -189.196 1992.69 -172.966 1997.56 -156.99C2003.43 -137.94 2001.89 -118.502 1993.09 -100.786C1978.47 -71.3328 1942.56 -48.6941 1899.36 -41.7193C1882.41 -38.9834 1866.95 -39.0256 1853.42 -41.8544C1816.61 -49.5554 1794.37 -74.3895 1772.86 -98.4046C1751.35 -122.42 1729.12 -147.245 1692.44 -154.406C1653.83 -161.947 1619 -158.451 1588.89 -144.02C1551.61 -126.152 1520.38 -90.8978 1496.08 -39.2452C1473.97 7.73788 1460.98 61.1976 1453.12 97.3215C1426.74 218.697 1390.78 280.744 1339.95 292.592C1281.37 306.246 1209.17 251.519 1125.56 188.146C1068.17 144.642 1003.13 95.3371 933.844 62.3037C854.469 24.4572 781.715 13.8177 711.447 29.777C589.228 57.5413 552.307 140.268 516.6 220.268C510.357 234.251 503.896 248.716 497.137 262.48C475.75 305.967 432.379 344.033 392.778 375.53C354.803 405.726 307.595 427.478 256.24 438.43C231.931 443.614 206.339 446.232 180.553 446.232L180.542 446.249Z" fill="white"/>
<path d="M170.498 492.041C117.172 492.041 64.6489 481.562 18.3458 461.279C-0.452718 453.046 -17.2121 443.639 -31.4628 433.329L-30.1798 432.367C-16.0322 442.601 0.612647 451.94 19.2851 460.122C148.389 516.673 316.189 492.615 409.608 404.155C451.146 364.822 483.577 321.977 503.406 280.229C504.861 274.588 506.304 268.889 507.759 263.138C531.885 167.745 559.229 59.6266 700.441 23.3676C770.445 -0.191464 842.535 3.99682 920.73 36.1942C989.016 64.3131 1051.04 108.526 1111.01 151.279C1196.32 212.093 1269.99 264.616 1335.53 250.379C1363.68 244.266 1388.52 226.22 1411.46 195.231C1436.43 161.496 1458.63 113.238 1479.36 47.6782C1472.75 -16.0748 1487 -77.9026 1519.48 -126.431C1537.79 -153.807 1561.6 -176.462 1590.24 -193.764C1621.66 -212.755 1658.91 -225.252 1700.94 -230.901L1701.04 -230.918H1701.16C1742.88 -229.153 1769.81 -202.985 1795.86 -177.678C1820.04 -154.178 1845.05 -129.885 1882.12 -123.957C1896.67 -122.099 1912.43 -123.045 1928.94 -126.769C1962.95 -134.436 1990.87 -151.561 2007.55 -174.976C2024.49 -198.763 2027.79 -225.936 2016.8 -251.505C2009.83 -267.743 2001.42 -284.167 1993.27 -300.05C1981.95 -322.165 1970.21 -345.032 1962.28 -367.662L1964.05 -368C1971.97 -345.437 1983.68 -322.604 1994.98 -300.523C2003.13 -284.623 2011.56 -268.191 2018.55 -251.91C2029.67 -225.995 2026.34 -198.451 2009.16 -174.343C1992.24 -150.606 1963.94 -133.254 1929.47 -125.477C1912.69 -121.694 1896.62 -120.731 1881.77 -122.631C1844 -128.669 1818.78 -153.165 1794.4 -176.859C1767.44 -203.053 1741.98 -227.794 1701.16 -229.559C1531.68 -206.709 1468.57 -73.8663 1481.2 47.6866V47.788L1481.18 47.8893C1460.41 113.618 1438.14 162.028 1413.08 195.881C1389.89 227.208 1364.7 245.465 1336.06 251.679C1305.58 258.308 1271.7 251.392 1229.48 229.927C1191.88 210.818 1151.98 182.37 1109.73 152.25C1049.85 109.557 987.917 65.4024 919.837 37.3679C842.191 5.39854 770.652 1.22717 701.128 24.6174C560.844 60.6315 533.603 168.345 509.569 263.383C508.114 269.15 506.66 274.875 505.205 280.533L505.17 280.634C485.284 322.534 452.738 365.531 411.063 404.991C365.688 447.954 300.93 477.391 228.738 487.861C209.401 490.665 189.903 492.049 170.509 492.049L170.498 492.041Z" fill="white"/>
</g>
</g>
<defs>
<clipPath id="clip0_128_3363">
<rect width="1920" height="800" fill="white"/>
</clipPath>
</defs>
</svg>
