<svg width="1920" height="900" viewBox="0 0 1920 900" fill="none" xmlns="http://www.w3.org/2000/svg">
<g clip-path="url(#clip0_117_140)">
<rect width="1920" height="900" fill="#2222FF"/>
<path d="M1675.74 787.215C1683.4 790.923 1691.95 792.588 1700.57 792.048C1709.19 791.508 1717.58 788.783 1724.93 784.135L1793.96 740.271C1801.29 735.593 1807.32 729.155 1811.47 721.583C1815.62 714.011 1817.75 705.56 1817.65 697.05L1816.56 610.607C1816.46 601.641 1813.88 592.937 1809.11 585.428C1804.34 577.92 1797.55 571.889 1789.48 567.983L1686.58 518.06L1569.38 592.521L1571.19 736.592L1675.74 787.215Z" fill="#E2E8F0" fill-opacity="0.25" stroke="#2222FF" stroke-width="11.588" stroke-linecap="round" stroke-linejoin="round"/>
<path d="M1699.04 655.362L1700.63 792.023Z" fill="#E2E8F0" fill-opacity="0.25"/>
<path d="M1699.04 655.362L1700.63 792.023" stroke="#2222FF" stroke-width="11.588" stroke-linecap="round" stroke-linejoin="round"/>
<path d="M1699.04 655.362L1569.38 592.521Z" fill="#E2E8F0" fill-opacity="0.25"/>
<path d="M1699.04 655.362L1569.38 592.521" stroke="#2222FF" stroke-width="11.588" stroke-linecap="round" stroke-linejoin="round"/>
<path d="M1699.04 655.362L1809.2 585.369Z" fill="#E2E8F0" fill-opacity="0.25"/>
<path d="M1699.04 655.362L1809.2 585.369" stroke="#2222FF" stroke-width="11.588" stroke-linecap="round" stroke-linejoin="round"/>
<path d="M1569.38 592.521L1686.58 518.06L1685.1 403.694C1684.99 394.728 1682.42 386.024 1677.65 378.516C1672.88 371.007 1666.09 364.976 1658.02 361.07L1580.23 323.366C1572.56 319.658 1564.01 317.994 1555.39 318.533C1546.78 319.073 1538.39 321.798 1531.04 326.446L1462 370.31C1454.67 374.988 1448.64 381.426 1444.49 388.998C1440.34 396.57 1438.21 405.021 1438.31 413.531L1439.73 529.68L1569.38 592.521Z" fill="#E2E8F0" fill-opacity="0.25" stroke="#2222FF" stroke-width="11.588" stroke-linecap="round" stroke-linejoin="round"/>
<path d="M1567.58 448.45L1569.38 592.521Z" fill="#E2E8F0" fill-opacity="0.25"/>
<path d="M1567.58 448.45L1569.38 592.521" stroke="#2222FF" stroke-width="11.588" stroke-linecap="round" stroke-linejoin="round"/>
<path d="M1567.58 448.449L1444.53 388.957Z" fill="#E2E8F0" fill-opacity="0.25"/>
<path d="M1567.58 448.449L1444.53 388.957" stroke="#2222FF" stroke-width="11.588" stroke-linecap="round" stroke-linejoin="round"/>
<path d="M1567.58 448.449L1677.74 378.456Z" fill="#E2E8F0" fill-opacity="0.25"/>
<path d="M1567.58 448.449L1677.74 378.456" stroke="#2222FF" stroke-width="11.588" stroke-linecap="round" stroke-linejoin="round"/>
<path d="M1428.88 798.835C1436.55 802.543 1445.1 804.207 1453.72 803.668C1462.33 803.128 1470.72 800.403 1478.07 795.755L1571.19 736.593L1569.38 592.521L1439.73 529.68L1346.61 588.842C1339.28 593.521 1333.25 599.958 1329.1 607.53C1324.95 615.103 1322.82 623.553 1322.92 632.064L1324.01 718.506C1324.12 727.473 1326.69 736.177 1331.46 743.685C1336.23 751.194 1343.02 757.224 1351.09 761.13L1428.88 798.835Z" fill="#E2E8F0" fill-opacity="0.25" stroke="#2222FF" stroke-width="11.588" stroke-linecap="round" stroke-linejoin="round"/>
<path d="M1452.19 666.981L1453.77 803.642Z" fill="#E2E8F0" fill-opacity="0.25"/>
<path d="M1452.19 666.981L1453.77 803.642" stroke="#2222FF" stroke-width="11.588" stroke-linecap="round" stroke-linejoin="round"/>
<path d="M1452.19 666.982L1329.15 607.489Z" fill="#E2E8F0" fill-opacity="0.25"/>
<path d="M1452.19 666.982L1329.15 607.489" stroke="#2222FF" stroke-width="11.588" stroke-linecap="round" stroke-linejoin="round"/>
<path d="M1569.38 592.521L1452.19 666.982Z" fill="#E2E8F0" fill-opacity="0.25"/>
<path d="M1569.38 592.521L1452.19 666.982" stroke="#2222FF" stroke-width="11.588" stroke-linecap="round" stroke-linejoin="round"/>
<path d="M2057.74 981.215C2065.4 984.923 2073.95 986.588 2082.57 986.048C2091.19 985.508 2099.58 982.783 2106.93 978.135L2175.96 934.271C2183.29 929.593 2189.32 923.155 2193.47 915.583C2197.62 908.011 2199.75 899.56 2199.65 891.05L2198.56 804.607C2198.46 795.641 2195.88 786.937 2191.11 779.428C2186.34 771.92 2179.55 765.889 2171.48 761.983L2068.58 712.06L1951.38 786.521L1953.19 930.592L2057.74 981.215Z" fill="#E2E8F0" fill-opacity="0.25" stroke="#2222FF" stroke-width="11.588" stroke-linecap="round" stroke-linejoin="round"/>
<path d="M1951.38 786.521L2068.58 712.06L2067.1 597.694C2066.99 588.728 2064.42 580.024 2059.65 572.516C2054.88 565.007 2048.09 558.976 2040.02 555.07L1962.23 517.366C1954.56 513.658 1946.01 511.994 1937.39 512.533C1928.78 513.073 1920.39 515.798 1913.04 520.446L1844 564.31C1836.67 568.988 1830.64 575.426 1826.49 582.998C1822.34 590.57 1820.21 599.021 1820.31 607.531L1821.73 723.68L1951.38 786.521Z" fill="#E2E8F0" fill-opacity="0.25" stroke="#2222FF" stroke-width="11.588" stroke-linecap="round" stroke-linejoin="round"/>
<path d="M1949.58 642.45L1951.38 786.521Z" fill="#E2E8F0" fill-opacity="0.25"/>
<path d="M1949.58 642.45L1951.38 786.521" stroke="#2222FF" stroke-width="11.588" stroke-linecap="round" stroke-linejoin="round"/>
<path d="M1949.58 642.449L1826.53 582.957Z" fill="#E2E8F0" fill-opacity="0.25"/>
<path d="M1949.58 642.449L1826.53 582.957" stroke="#2222FF" stroke-width="11.588" stroke-linecap="round" stroke-linejoin="round"/>
<path d="M1810.88 992.835C1818.55 996.543 1827.1 998.207 1835.72 997.668C1844.33 997.128 1852.72 994.403 1860.07 989.755L1953.19 930.593L1951.38 786.521L1821.73 723.68L1728.61 782.842C1721.28 787.521 1715.25 793.958 1711.1 801.53C1706.95 809.103 1704.82 817.553 1704.92 826.064L1706.01 912.506C1706.12 921.473 1708.69 930.177 1713.46 937.685C1718.23 945.194 1725.02 951.224 1733.09 955.13L1810.88 992.835Z" fill="#E2E8F0" fill-opacity="0.25" stroke="#2222FF" stroke-width="11.588" stroke-linecap="round" stroke-linejoin="round"/>
<path d="M1834.19 860.981L1835.77 997.642Z" fill="#E2E8F0" fill-opacity="0.25"/>
<path d="M1834.19 860.981L1835.77 997.642" stroke="#2222FF" stroke-width="11.588" stroke-linecap="round" stroke-linejoin="round"/>
<path d="M1834.19 860.982L1711.15 801.489Z" fill="#E2E8F0" fill-opacity="0.25"/>
<path d="M1834.19 860.982L1711.15 801.489" stroke="#2222FF" stroke-width="11.588" stroke-linecap="round" stroke-linejoin="round"/>
<path d="M1951.38 786.521L1834.19 860.982Z" fill="#E2E8F0" fill-opacity="0.25"/>
<path d="M1951.38 786.521L1834.19 860.982" stroke="#2222FF" stroke-width="11.588" stroke-linecap="round" stroke-linejoin="round"/>
<path d="M2034.74 560.215C2042.4 563.923 2050.95 565.588 2059.57 565.048C2068.19 564.508 2076.58 561.783 2083.93 557.135L2152.96 513.271C2160.29 508.593 2166.32 502.155 2170.47 494.583C2174.62 487.011 2176.75 478.56 2176.65 470.05L2175.56 383.607C2175.46 374.641 2172.88 365.937 2168.11 358.428C2163.34 350.92 2156.55 344.889 2148.48 340.983L2045.58 291.06L1928.38 365.521L1930.19 509.592L2034.74 560.215Z" fill="#E2E8F0" fill-opacity="0.25" stroke="#2222FF" stroke-width="11.588" stroke-linecap="round" stroke-linejoin="round"/>
<path d="M2058.04 428.362L1928.38 365.521Z" fill="#E2E8F0" fill-opacity="0.25"/>
<path d="M2058.04 428.362L1928.38 365.521" stroke="#2222FF" stroke-width="11.588" stroke-linecap="round" stroke-linejoin="round"/>
<path d="M1928.38 365.521L2045.58 291.06L2044.1 176.694C2043.99 167.728 2041.42 159.024 2036.65 151.516C2031.88 144.007 2025.09 137.976 2017.02 134.07L1939.23 96.3655C1931.56 92.658 1923.01 90.9935 1914.39 91.5331C1905.78 92.0727 1897.39 94.7982 1890.04 99.4456L1821 143.31C1813.67 147.988 1807.64 154.426 1803.49 161.998C1799.34 169.57 1797.21 178.021 1797.31 186.531L1798.73 302.68L1928.38 365.521Z" fill="#E2E8F0" fill-opacity="0.25" stroke="#2222FF" stroke-width="11.588" stroke-linecap="round" stroke-linejoin="round"/>
<path d="M1926.58 221.45L1928.38 365.521Z" fill="#E2E8F0" fill-opacity="0.25"/>
<path d="M1926.58 221.45L1928.38 365.521" stroke="#2222FF" stroke-width="11.588" stroke-linecap="round" stroke-linejoin="round"/>
<path d="M1926.58 221.449L1803.53 161.957Z" fill="#E2E8F0" fill-opacity="0.25"/>
<path d="M1926.58 221.449L1803.53 161.957" stroke="#2222FF" stroke-width="11.588" stroke-linecap="round" stroke-linejoin="round"/>
<path d="M1926.58 221.449L2036.74 151.456Z" fill="#E2E8F0" fill-opacity="0.25"/>
<path d="M1926.58 221.449L2036.74 151.456" stroke="#2222FF" stroke-width="11.588" stroke-linecap="round" stroke-linejoin="round"/>
<path d="M1787.88 571.835C1795.55 575.543 1804.1 577.207 1812.72 576.668C1821.33 576.128 1829.72 573.403 1837.07 568.755L1930.19 509.593L1928.38 365.521L1798.73 302.68L1705.61 361.842C1698.28 366.521 1692.25 372.958 1688.1 380.53C1683.95 388.103 1681.82 396.553 1681.92 405.064L1683.01 491.506C1683.12 500.473 1685.69 509.177 1690.46 516.685C1695.23 524.194 1702.02 530.224 1710.09 534.13L1787.88 571.835Z" fill="#E2E8F0" fill-opacity="0.25" stroke="#2222FF" stroke-width="11.588" stroke-linecap="round" stroke-linejoin="round"/>
<path d="M1811.19 439.981L1812.77 576.642Z" fill="#E2E8F0" fill-opacity="0.25"/>
<path d="M1811.19 439.981L1812.77 576.642" stroke="#2222FF" stroke-width="11.588" stroke-linecap="round" stroke-linejoin="round"/>
<path d="M1811.19 439.982L1688.15 380.489Z" fill="#E2E8F0" fill-opacity="0.25"/>
<path d="M1811.19 439.982L1688.15 380.489" stroke="#2222FF" stroke-width="11.588" stroke-linecap="round" stroke-linejoin="round"/>
<path d="M1928.38 365.521L1811.19 439.982Z" fill="#E2E8F0" fill-opacity="0.25"/>
<path d="M1928.38 365.521L1811.19 439.982" stroke="#2222FF" stroke-width="11.588" stroke-linecap="round" stroke-linejoin="round"/>
<path d="M1594.3 1021.69L1711.5 947.229L1708.46 830.414C1708.24 821.256 1705.52 812.333 1700.61 804.6C1695.69 796.868 1688.77 790.618 1680.58 786.519L1601.61 746.964C1593.83 743.074 1585.18 741.259 1576.5 741.694C1567.81 742.129 1559.39 744.799 1552.04 749.446L1483 793.31C1475.67 797.989 1469.67 804.481 1465.59 812.158C1461.51 819.836 1459.48 828.437 1459.69 837.129L1462.69 955.764L1594.3 1021.69Z" fill="#E2E8F0" fill-opacity="0.25" stroke="#2222FF" stroke-width="11.588" stroke-linecap="round" stroke-linejoin="round"/>
<path d="M1590.54 874.534L1594.3 1021.69Z" fill="#E2E8F0" fill-opacity="0.25"/>
<path d="M1590.54 874.534L1594.3 1021.69" stroke="#2222FF" stroke-width="11.588" stroke-linecap="round" stroke-linejoin="round"/>
<path d="M1590.54 874.534L1465.64 812.117Z" fill="#E2E8F0" fill-opacity="0.25"/>
<path d="M1590.54 874.534L1465.64 812.117" stroke="#2222FF" stroke-width="11.588" stroke-linecap="round" stroke-linejoin="round"/>
<path d="M1590.54 874.534L1700.7 804.541Z" fill="#E2E8F0" fill-opacity="0.25"/>
<path d="M1590.54 874.534L1700.7 804.541" stroke="#2222FF" stroke-width="11.588" stroke-linecap="round" stroke-linejoin="round"/>
<path d="M1317.2 1015.53C1324.97 1019.42 1333.62 1021.24 1342.31 1020.8C1350.99 1020.37 1359.42 1017.7 1366.77 1013.05L1435.8 969.186C1443.13 964.507 1449.13 958.014 1453.21 950.337C1457.29 942.66 1459.33 934.059 1459.11 925.366L1456.85 837.073C1456.62 827.914 1453.9 818.991 1448.99 811.258C1444.08 803.526 1437.15 797.276 1428.96 793.178L1324.5 740.805L1207.3 815.266L1211.07 962.422L1317.2 1015.53Z" fill="#E2E8F0" fill-opacity="0.25" stroke="#2222FF" stroke-width="11.588" stroke-linecap="round" stroke-linejoin="round"/>
<path d="M1338.92 881.192L1342.36 1020.78Z" fill="#E2E8F0" fill-opacity="0.25"/>
<path d="M1338.92 881.192L1342.36 1020.78" stroke="#2222FF" stroke-width="11.588" stroke-linecap="round" stroke-linejoin="round"/>
<path d="M1338.92 881.192L1207.3 815.266Z" fill="#E2E8F0" fill-opacity="0.25"/>
<path d="M1338.92 881.192L1207.3 815.266" stroke="#2222FF" stroke-width="11.588" stroke-linecap="round" stroke-linejoin="round"/>
<path d="M1338.92 881.192L1449.08 811.199Z" fill="#E2E8F0" fill-opacity="0.25"/>
<path d="M1338.92 881.192L1449.08 811.199" stroke="#2222FF" stroke-width="11.588" stroke-linecap="round" stroke-linejoin="round"/>
<path d="M1207.3 815.266L1324.5 740.805L1321.46 623.991C1321.24 614.832 1318.52 605.909 1313.61 598.176C1308.69 590.444 1301.77 584.194 1293.58 580.096L1214.61 540.54C1206.83 536.65 1198.18 534.835 1189.5 535.27C1180.81 535.705 1172.39 538.375 1165.04 543.022L1096 586.886C1088.67 591.565 1082.67 598.058 1078.59 605.735C1074.51 613.412 1072.48 622.013 1072.69 630.706L1075.69 749.34L1207.3 815.266Z" fill="#E2E8F0" fill-opacity="0.25" stroke="#2222FF" stroke-width="11.588" stroke-linecap="round" stroke-linejoin="round"/>
<path d="M1203.54 668.11L1207.3 815.266Z" fill="#E2E8F0" fill-opacity="0.25"/>
<path d="M1203.54 668.11L1207.3 815.266" stroke="#2222FF" stroke-width="11.588" stroke-linecap="round" stroke-linejoin="round"/>
<path d="M1203.54 668.11L1078.64 605.694Z" fill="#E2E8F0" fill-opacity="0.25"/>
<path d="M1203.54 668.11L1078.64 605.694" stroke="#2222FF" stroke-width="11.588" stroke-linecap="round" stroke-linejoin="round"/>
<path d="M1203.54 668.11L1313.7 598.117Z" fill="#E2E8F0" fill-opacity="0.25"/>
<path d="M1203.54 668.11L1313.7 598.117" stroke="#2222FF" stroke-width="11.588" stroke-linecap="round" stroke-linejoin="round"/>
<path d="M1068.38 1024.07C1076.16 1027.96 1084.81 1029.77 1093.49 1029.34C1102.18 1028.9 1110.6 1026.23 1117.95 1021.59L1211.07 962.423L1207.3 815.267L1075.69 749.341L982.57 808.503C975.241 813.182 969.244 819.675 965.161 827.352C961.078 835.029 959.047 843.63 959.265 852.323L961.525 940.616C961.754 949.775 964.471 958.698 969.384 966.431C974.296 974.163 981.221 980.413 989.414 984.511L1068.38 1024.07Z" fill="#E2E8F0" fill-opacity="0.25" stroke="#2222FF" stroke-width="11.588" stroke-linecap="round" stroke-linejoin="round"/>
<path d="M1090.11 889.727L1093.55 1029.31Z" fill="#E2E8F0" fill-opacity="0.25"/>
<path d="M1090.11 889.727L1093.55 1029.31" stroke="#2222FF" stroke-width="11.588" stroke-linecap="round" stroke-linejoin="round"/>
<path d="M1090.11 889.727L965.209 827.31Z" fill="#E2E8F0" fill-opacity="0.25"/>
<path d="M1090.11 889.727L965.209 827.31" stroke="#2222FF" stroke-width="11.588" stroke-linecap="round" stroke-linejoin="round"/>
<path d="M1207.3 815.266L1090.11 889.727Z" fill="#E2E8F0" fill-opacity="0.25"/>
<path d="M1207.3 815.266L1090.11 889.727" stroke="#2222FF" stroke-width="11.588" stroke-linecap="round" stroke-linejoin="round"/>
</g>
<defs>
<clipPath id="clip0_117_140">
<rect width="1920" height="900" fill="white"/>
</clipPath>
</defs>
</svg>
