<svg width="1657" height="193" viewBox="0 0 1657 193" fill="none" xmlns="http://www.w3.org/2000/svg">
<path fill-rule="evenodd" clip-rule="evenodd" d="M158.579 190.308V98.877L197.886 166.26L236.826 98.877V190.308H330.576V137.329L314.951 134.277V58.8379L330.576 55.7861V2.80762H236.826L197.886 74.8291L158.579 2.80762L127.751 2.8076V9.8076H124.251H64.9512V2.80762L124.251 2.8076H34.1993H30.6994V9.8076H34.1993H64.9512V19.8076H22.9429H19.4429V26.8076H22.9429H64.9512V36.8076H3.5H0V43.8076H3.5H64.9512V55.7861L80.5762 58.8379V134.277L64.9512 137.329V190.308H158.579ZM64.9512 43.8076H93.5514H97.0514V36.8076H93.5514H64.9512V43.8076ZM64.9512 26.8076H112.994H116.494V19.8076H112.994H64.9512V26.8076ZM414.575 190.674C423.853 191.895 433.455 192.505 443.384 192.505C458.521 192.505 472.721 190.837 485.986 187.5C499.251 184.082 510.848 178.385 520.776 170.41C530.705 162.435 538.517 152.181 544.214 139.648C549.992 127.035 552.881 111.938 552.881 94.3604C552.881 83.1299 551.579 73.0387 548.975 64.0869C546.37 55.0537 542.708 47.0378 537.988 40.0391C533.268 33.0404 527.572 27.0182 520.898 21.9727C514.307 16.9271 506.942 12.7767 498.804 9.52148C490.666 6.26628 481.917 3.86556 472.559 2.31934C463.2 0.773112 453.475 0 443.384 0C433.293 0 423.568 0.773112 414.209 2.31934C404.932 3.86556 396.224 6.26628 388.086 9.52148C380.029 12.6953 372.664 16.805 365.991 21.8506C359.399 26.8962 353.743 32.9183 349.023 39.917C344.303 46.9157 340.641 54.9316 338.037 63.9648C335.433 72.998 334.131 83.1299 334.131 94.3604C334.131 106.323 335.433 117.106 338.037 126.709C340.723 136.23 344.466 144.694 349.268 152.1C354.069 159.424 359.806 165.731 366.479 171.021C373.153 176.229 380.518 180.501 388.574 183.838C396.712 187.174 405.379 189.453 414.575 190.674ZM430.2 57.8613C433.781 56.4779 438.175 55.7861 443.384 55.7861C448.592 55.7861 452.946 56.4779 456.445 57.8613C460.026 59.1634 462.996 60.9131 465.356 63.1104C467.716 65.3076 469.507 67.7897 470.728 70.5566C472.03 73.3236 472.965 76.1312 473.535 78.9795C474.105 81.8278 474.43 84.5947 474.512 87.2803C474.674 89.9658 474.756 92.3258 474.756 94.3604C474.756 96.3949 474.674 98.7549 474.512 101.44C474.43 104.126 474.105 106.934 473.535 109.863C472.965 112.712 472.03 115.56 470.728 118.408C469.507 121.257 467.716 123.82 465.356 126.099C462.996 128.296 460.026 130.086 456.445 131.47C452.946 132.853 448.592 133.545 443.384 133.545C438.175 133.545 433.781 132.853 430.2 131.47C426.701 130.086 423.771 128.296 421.411 126.099C419.132 123.82 417.383 121.257 416.162 118.408C414.941 115.56 414.006 112.712 413.354 109.863C412.785 106.934 412.459 104.126 412.378 101.44C412.297 98.7549 412.256 96.3949 412.256 94.3604C412.256 92.3258 412.297 89.9658 412.378 87.2803C412.459 84.5947 412.785 81.8278 413.354 78.9795C414.006 76.1312 414.941 73.3236 416.162 70.5566C417.383 67.7897 419.132 65.3076 421.411 63.1104C423.771 60.9131 426.701 59.1634 430.2 57.8613ZM633.95 190.674C643.228 191.895 652.83 192.505 662.759 192.505C677.896 192.505 692.096 190.837 705.361 187.5C718.626 184.082 730.223 178.385 740.151 170.41C750.08 162.435 757.892 152.181 763.589 139.648C769.367 127.035 772.256 111.938 772.256 94.3604C772.256 83.1299 770.954 73.0387 768.35 64.0869C767.529 61.2389 766.602 58.492 765.571 55.8462L783.745 58.7158L833.672 190.43H920.586L970.513 58.7158L988.617 55.8383L1003.97 58.8379V134.277L988.35 137.329V190.308H1097.72V137.329L1082.1 134.277V58.8379L1097.72 55.7861V2.80762H988.945H988.35H894.585V55.7861L908.013 58.7158L886.895 128.174L865.776 58.7158L879.204 55.7861V2.80762H765.19V54.8865C763.023 49.5123 760.414 44.5631 757.363 40.0391C752.643 33.0404 746.947 27.0182 740.273 21.9727C733.682 16.9271 726.317 12.7767 718.179 9.52148C710.041 6.26628 701.292 3.86556 691.934 2.31934C682.575 0.773112 672.85 0 662.759 0C652.668 0 642.943 0.773112 633.584 2.31934C624.307 3.86556 615.599 6.26628 607.461 9.52148C599.404 12.6953 592.039 16.805 585.366 21.8506C578.774 26.8962 573.118 32.9183 568.398 39.917C563.678 46.9157 560.016 54.9316 557.412 63.9648C554.808 72.998 553.506 83.1299 553.506 94.3604C553.506 106.323 554.808 117.106 557.412 126.709C560.098 136.23 563.841 144.694 568.643 152.1C573.444 159.424 579.181 165.731 585.854 171.021C592.528 176.229 599.893 180.501 607.949 183.838C616.087 187.174 624.754 189.453 633.95 190.674ZM649.575 57.8613C653.156 56.4779 657.55 55.7861 662.759 55.7861C667.967 55.7861 672.321 56.4779 675.82 57.8613C679.401 59.1634 682.371 60.9131 684.731 63.1104C687.091 65.3076 688.882 67.7897 690.103 70.5566C691.405 73.3236 692.341 76.1312 692.91 78.9795C693.48 81.8278 693.805 84.5947 693.887 87.2803C694.049 89.9658 694.131 92.3258 694.131 94.3604C694.131 96.3949 694.049 98.7549 693.887 101.44C693.805 104.126 693.48 106.934 692.91 109.863C692.341 112.712 691.405 115.56 690.103 118.408C688.882 121.257 687.091 123.82 684.731 126.099C682.371 128.296 679.401 130.086 675.82 131.47C672.321 132.853 667.967 133.545 662.759 133.545C657.55 133.545 653.156 132.853 649.575 131.47C646.076 130.086 643.146 128.296 640.786 126.099C638.508 123.82 636.758 121.257 635.537 118.408C634.316 115.56 633.381 112.712 632.729 109.863C632.16 106.934 631.834 104.126 631.753 101.44C631.672 98.7549 631.631 96.3949 631.631 94.3604C631.631 92.3258 631.672 89.9658 631.753 87.2803C631.834 84.5947 632.16 81.8278 632.729 78.9795C633.381 76.1312 634.316 73.3236 635.537 70.5566C636.758 67.7897 638.508 65.3076 640.786 63.1104C643.146 60.9131 646.076 59.1634 649.575 57.8613ZM1212.36 142.09C1208.95 142.985 1205.28 143.433 1201.38 143.433V58.8379L1217 55.7861V2.80762H1107.63V55.7861L1123.25 58.8379V134.277L1107.63 137.329V190.308H1256.55V129.542C1259.16 137.917 1262.62 145.437 1266.94 152.1C1271.74 159.424 1277.48 165.731 1284.16 171.021C1290.83 176.229 1298.19 180.501 1306.25 183.838C1314.39 187.174 1323.06 189.453 1332.25 190.674C1341.53 191.895 1351.13 192.505 1361.06 192.505C1376.2 192.505 1390.4 190.837 1403.66 187.5C1416.93 184.082 1428.52 178.385 1438.45 170.41C1448.38 162.435 1456.19 152.181 1461.89 139.648C1467.67 127.035 1470.56 111.938 1470.56 94.3604C1470.56 83.1299 1469.25 73.0387 1466.65 64.0869C1464.05 55.0537 1460.38 47.0378 1455.66 40.0391C1450.94 33.0404 1445.25 27.0182 1438.57 21.9727C1431.98 16.9271 1424.62 12.7767 1416.48 9.52148C1408.34 6.26628 1399.59 3.86556 1390.23 2.31934C1380.88 0.773112 1371.15 0 1361.06 0C1350.97 0 1341.24 0.773112 1331.88 2.31934C1322.61 3.86556 1313.9 6.26628 1305.76 9.52148C1297.71 12.6953 1290.34 16.805 1283.67 21.8506C1277.08 26.8962 1271.42 32.9183 1266.7 39.917C1261.98 46.9157 1258.32 54.9316 1255.71 63.9648C1253.11 72.998 1251.81 83.1299 1251.81 94.3604C1251.81 106.323 1253.11 117.106 1255.71 126.709C1255.82 127.077 1255.92 127.443 1256.03 127.808H1236.17C1234.38 129.679 1232.26 131.551 1229.82 133.423C1227.46 135.295 1224.81 136.963 1221.88 138.428C1218.96 139.893 1215.78 141.113 1212.36 142.09ZM1347.88 57.8613C1351.46 56.4779 1355.85 55.7861 1361.06 55.7861C1366.27 55.7861 1370.62 56.4779 1374.12 57.8613C1377.7 59.1634 1380.67 60.9131 1383.03 63.1104C1385.39 65.3076 1387.18 67.7897 1388.4 70.5566C1389.71 73.3236 1390.64 76.1312 1391.21 78.9795C1391.78 81.8278 1392.11 84.5947 1392.19 87.2803C1392.35 89.9658 1392.43 92.3258 1392.43 94.3604C1392.43 96.3949 1392.35 98.7549 1392.19 101.44C1392.11 104.126 1391.78 106.934 1391.21 109.863C1390.64 112.712 1389.71 115.56 1388.4 118.408C1387.18 121.257 1385.39 123.82 1383.03 126.099C1380.67 128.296 1377.7 130.086 1374.12 131.47C1370.62 132.853 1366.27 133.545 1361.06 133.545C1355.85 133.545 1351.46 132.853 1347.88 131.47C1344.38 130.086 1341.45 128.296 1339.09 126.099C1336.81 123.82 1335.06 121.257 1333.84 118.408C1332.62 115.56 1331.68 112.712 1331.03 109.863C1330.46 106.934 1330.14 104.126 1330.05 101.44C1329.97 98.7549 1329.93 96.3949 1329.93 94.3604C1329.93 92.3258 1329.97 89.9658 1330.05 87.2803C1330.14 84.5947 1330.46 81.8278 1331.03 78.9795C1331.68 76.1312 1332.62 73.3236 1333.84 70.5566C1335.06 67.7897 1336.81 65.3076 1339.09 63.1104C1341.45 60.9131 1344.38 59.1634 1347.88 57.8613ZM1478.63 51.2695C1473.75 62.9883 1471.3 77.3519 1471.3 94.3604C1471.3 105.672 1472.52 116.007 1474.97 125.366C1477.41 134.644 1480.83 142.985 1485.22 150.391C1489.7 157.715 1495.07 164.103 1501.33 169.556C1507.6 174.927 1514.52 179.403 1522.08 182.983C1529.73 186.564 1537.95 189.046 1546.74 190.43C1555.53 191.813 1564.73 192.505 1574.33 192.505C1580.19 192.505 1586.58 192.139 1593.5 191.406C1600.41 190.755 1607.45 189.575 1614.61 187.866C1621.86 186.076 1629.06 184.001 1636.22 181.641C1643.46 179.199 1650.3 176.636 1656.73 173.95V84.8389H1580.8V118.286H1604.24V133.057C1601.23 133.708 1598.22 134.196 1595.21 134.521C1592.28 134.847 1589.35 135.01 1586.42 135.01C1574.62 135.01 1565.5 131.755 1559.07 125.244C1552.72 118.734 1549.55 108.439 1549.55 94.3604C1549.55 88.0127 1550.57 82.3975 1552.6 77.5146C1554.64 72.5505 1557.32 68.3594 1560.66 64.9414C1564 61.5234 1567.78 58.9193 1572.01 57.1289C1576.32 55.3385 1580.76 54.4434 1585.32 54.4434C1590.69 54.4434 1595.9 55.8268 1600.94 58.5938C1606.07 61.3607 1610.71 65.6738 1614.86 71.5332H1651.6V15.7471C1647.29 13.7126 1642.61 11.7594 1637.56 9.8877C1632.6 8.01595 1626.9 6.34766 1620.47 4.88281C1614.13 3.41797 1606.88 2.23796 1598.75 1.34277C1590.61 0.447591 1581.29 0 1570.79 0C1555.57 0 1542.1 1.95312 1530.39 5.85938C1518.67 9.76562 1508.45 15.2995 1499.75 22.4609C1490.63 29.9479 1483.59 39.5508 1478.63 51.2695Z" fill="#2222FF"/>
</svg>
