<svg width="1658" height="194" viewBox="0 0 1658 194" fill="none" xmlns="http://www.w3.org/2000/svg">
<path fill-rule="evenodd" clip-rule="evenodd" d="M159.079 191V99.5693L198.386 166.952L237.326 99.5693V191H331.076V138.021L315.451 134.97V59.5303L331.076 56.4785V3.5H237.326L198.386 75.5215L159.079 3.5L128.251 3.49998V10.5H124.751H65.4512V3.5L124.751 3.49998H34.6993H31.1994V10.5H34.6993H65.4512V20.5H23.4429H19.9429V27.5H23.4429H65.4512V37.5H4H0.5V44.5H4H65.4512V56.4785L81.0762 59.5303V134.97L65.4512 138.021V191H159.079ZM65.4512 44.5H94.0514H97.5514V37.5H94.0514H65.4512V44.5ZM65.4512 27.5H113.494H116.994V20.5H113.494H65.4512V27.5ZM415.075 191.366C424.353 192.587 433.955 193.197 443.884 193.197C459.021 193.197 473.221 191.529 486.486 188.192C499.751 184.774 511.348 179.078 521.276 171.103C531.205 163.127 539.017 152.873 544.714 140.341C550.492 127.727 553.381 112.631 553.381 95.0527C553.381 83.8223 552.079 73.7311 549.475 64.7793C546.87 55.7461 543.208 47.7301 538.488 40.7314C533.768 33.7327 528.072 27.7106 521.398 22.665C514.807 17.6195 507.442 13.4691 499.304 10.2139C491.166 6.95866 482.417 4.55794 473.059 3.01172C463.7 1.46549 453.975 0.692383 443.884 0.692383C433.793 0.692383 424.068 1.46549 414.709 3.01172C405.432 4.55794 396.724 6.95866 388.586 10.2139C380.529 13.3877 373.164 17.4974 366.491 22.543C359.899 27.5885 354.243 33.6107 349.523 40.6094C344.803 47.6081 341.141 55.624 338.537 64.6572C335.933 73.6904 334.631 83.8223 334.631 95.0527C334.631 107.016 335.933 117.799 338.537 127.401C341.223 136.923 344.966 145.386 349.768 152.792C354.569 160.116 360.306 166.423 366.979 171.713C373.653 176.921 381.018 181.194 389.074 184.53C397.212 187.867 405.879 190.146 415.075 191.366ZM430.7 58.5537C434.281 57.1702 438.675 56.4785 443.884 56.4785C449.092 56.4785 453.446 57.1702 456.945 58.5537C460.526 59.8558 463.496 61.6055 465.856 63.8027C468.216 66 470.007 68.4821 471.228 71.249C472.53 74.016 473.465 76.8236 474.035 79.6719C474.605 82.5202 474.93 85.2871 475.012 87.9727C475.174 90.6582 475.256 93.0182 475.256 95.0527C475.256 97.0872 475.174 99.4473 475.012 102.133C474.93 104.818 474.605 107.626 474.035 110.556C473.465 113.404 472.53 116.252 471.228 119.101C470.007 121.949 468.216 124.512 465.856 126.791C463.496 128.988 460.526 130.779 456.945 132.162C453.446 133.546 449.092 134.237 443.884 134.237C438.675 134.237 434.281 133.546 430.7 132.162C427.201 130.779 424.271 128.988 421.911 126.791C419.632 124.512 417.883 121.949 416.662 119.101C415.441 116.252 414.506 113.404 413.854 110.556C413.285 107.626 412.959 104.818 412.878 102.133C412.797 99.4473 412.756 97.0872 412.756 95.0527C412.756 93.0182 412.797 90.6582 412.878 87.9727C412.959 85.2871 413.285 82.5202 413.854 79.6719C414.506 76.8236 415.441 74.016 416.662 71.249C417.883 68.4821 419.632 66 421.911 63.8027C424.271 61.6055 427.201 59.8558 430.7 58.5537ZM634.45 191.366C643.728 192.587 653.33 193.197 663.259 193.197C678.396 193.197 692.596 191.529 705.861 188.192C719.126 184.774 730.723 179.078 740.651 171.103C750.58 163.127 758.392 152.873 764.089 140.341C769.867 127.727 772.756 112.631 772.756 95.0527C772.756 83.8223 771.454 73.7311 768.85 64.7793C768.029 61.9313 767.102 59.1844 766.071 56.5386L784.245 59.4082L834.172 191.122H921.086L971.013 59.4082L989.117 56.5307L1004.47 59.5303V134.97L988.85 138.021V191H1098.22V138.021L1082.6 134.97V59.5303L1098.22 56.4785V3.5H989.445H988.85H895.085V56.4785L908.513 59.4082L887.395 128.866L866.276 59.4082L879.704 56.4785V3.5H765.69V55.5789C763.523 50.2047 760.914 45.2555 757.863 40.7314C753.143 33.7327 747.447 27.7106 740.773 22.665C734.182 17.6195 726.817 13.4691 718.679 10.2139C710.541 6.95866 701.792 4.55794 692.434 3.01172C683.075 1.46549 673.35 0.692383 663.259 0.692383C653.168 0.692383 643.443 1.46549 634.084 3.01172C624.807 4.55794 616.099 6.95866 607.961 10.2139C599.904 13.3877 592.539 17.4974 585.866 22.543C579.274 27.5885 573.618 33.6107 568.898 40.6094C564.178 47.6081 560.516 55.624 557.912 64.6572C555.308 73.6904 554.006 83.8223 554.006 95.0527C554.006 107.016 555.308 117.799 557.912 127.401C560.598 136.923 564.341 145.386 569.143 152.792C573.944 160.116 579.681 166.423 586.354 171.713C593.028 176.921 600.393 181.194 608.449 184.53C616.587 187.867 625.254 190.146 634.45 191.366ZM650.075 58.5537C653.656 57.1702 658.05 56.4785 663.259 56.4785C668.467 56.4785 672.821 57.1702 676.32 58.5537C679.901 59.8558 682.871 61.6055 685.231 63.8027C687.591 66 689.382 68.4821 690.603 71.249C691.905 74.016 692.841 76.8236 693.41 79.6719C693.98 82.5202 694.305 85.2871 694.387 87.9727C694.549 90.6582 694.631 93.0182 694.631 95.0527C694.631 97.0872 694.549 99.4473 694.387 102.133C694.305 104.818 693.98 107.626 693.41 110.556C692.841 113.404 691.905 116.252 690.603 119.101C689.382 121.949 687.591 124.512 685.231 126.791C682.871 128.988 679.901 130.779 676.32 132.162C672.821 133.546 668.467 134.237 663.259 134.237C658.05 134.237 653.656 133.546 650.075 132.162C646.576 130.779 643.646 128.988 641.286 126.791C639.008 124.512 637.258 121.949 636.037 119.101C634.816 116.252 633.881 113.404 633.229 110.556C632.66 107.626 632.334 104.818 632.253 102.133C632.172 99.4473 632.131 97.0872 632.131 95.0527C632.131 93.0182 632.172 90.6582 632.253 87.9727C632.334 85.2871 632.66 82.5202 633.229 79.6719C633.881 76.8236 634.816 74.016 636.037 71.249C637.258 68.4821 639.008 66 641.286 63.8027C643.646 61.6055 646.576 59.8558 650.075 58.5537ZM1212.86 142.782C1209.45 143.677 1205.78 144.125 1201.88 144.125V59.5303L1217.5 56.4785V3.5H1108.13V56.4785L1123.75 59.5303V134.97L1108.13 138.021V191H1257.05V130.234C1259.66 138.61 1263.12 146.129 1267.44 152.792C1272.24 160.116 1277.98 166.423 1284.66 171.713C1291.33 176.921 1298.69 181.194 1306.75 184.53C1314.89 187.867 1323.56 190.146 1332.75 191.366C1342.03 192.587 1351.63 193.197 1361.56 193.197C1376.7 193.197 1390.9 191.529 1404.16 188.192C1417.43 184.774 1429.02 179.078 1438.95 171.103C1448.88 163.127 1456.69 152.873 1462.39 140.341C1468.17 127.727 1471.06 112.631 1471.06 95.0527C1471.06 83.8223 1469.75 73.7311 1467.15 64.7793C1464.55 55.7461 1460.88 47.7301 1456.16 40.7314C1451.44 33.7327 1445.75 27.7106 1439.07 22.665C1432.48 17.6195 1425.12 13.4691 1416.98 10.2139C1408.84 6.95866 1400.09 4.55794 1390.73 3.01172C1381.38 1.46549 1371.65 0.692383 1361.56 0.692383C1351.47 0.692383 1341.74 1.46549 1332.38 3.01172C1323.11 4.55794 1314.4 6.95866 1306.26 10.2139C1298.21 13.3877 1290.84 17.4974 1284.17 22.543C1277.58 27.5885 1271.92 33.6107 1267.2 40.6094C1262.48 47.6081 1258.82 55.624 1256.21 64.6572C1253.61 73.6904 1252.31 83.8223 1252.31 95.0527C1252.31 107.016 1253.61 117.799 1256.21 127.401C1256.32 127.769 1256.42 128.135 1256.53 128.5H1236.67C1234.88 130.372 1232.76 132.243 1230.32 134.115C1227.96 135.987 1225.31 137.655 1222.38 139.12C1219.46 140.585 1216.28 141.806 1212.86 142.782ZM1348.38 58.5537C1351.96 57.1702 1356.35 56.4785 1361.56 56.4785C1366.77 56.4785 1371.12 57.1702 1374.62 58.5537C1378.2 59.8558 1381.17 61.6055 1383.53 63.8027C1385.89 66 1387.68 68.4821 1388.9 71.249C1390.21 74.016 1391.14 76.8236 1391.71 79.6719C1392.28 82.5202 1392.61 85.2871 1392.69 87.9727C1392.85 90.6582 1392.93 93.0182 1392.93 95.0527C1392.93 97.0872 1392.85 99.4473 1392.69 102.133C1392.61 104.818 1392.28 107.626 1391.71 110.556C1391.14 113.404 1390.21 116.252 1388.9 119.101C1387.68 121.949 1385.89 124.512 1383.53 126.791C1381.17 128.988 1378.2 130.779 1374.62 132.162C1371.12 133.546 1366.77 134.237 1361.56 134.237C1356.35 134.237 1351.96 133.546 1348.38 132.162C1344.88 130.779 1341.95 128.988 1339.59 126.791C1337.31 124.512 1335.56 121.949 1334.34 119.101C1333.12 116.252 1332.18 113.404 1331.53 110.556C1330.96 107.626 1330.64 104.818 1330.55 102.133C1330.47 99.4473 1330.43 97.0872 1330.43 95.0527C1330.43 93.0182 1330.47 90.6582 1330.55 87.9727C1330.64 85.2871 1330.96 82.5202 1331.53 79.6719C1332.18 76.8236 1333.12 74.016 1334.34 71.249C1335.56 68.4821 1337.31 66 1339.59 63.8027C1341.95 61.6055 1344.88 59.8558 1348.38 58.5537ZM1479.13 51.9619C1474.25 63.6807 1471.8 78.0443 1471.8 95.0527C1471.8 106.365 1473.02 116.7 1475.47 126.059C1477.91 135.336 1481.33 143.677 1485.72 151.083C1490.2 158.407 1495.57 164.796 1501.83 170.248C1508.1 175.619 1515.02 180.095 1522.58 183.676C1530.23 187.257 1538.45 189.739 1547.24 191.122C1556.03 192.506 1565.23 193.197 1574.83 193.197C1580.69 193.197 1587.08 192.831 1594 192.099C1600.91 191.448 1607.95 190.268 1615.11 188.559C1622.36 186.768 1629.56 184.693 1636.72 182.333C1643.96 179.892 1650.8 177.328 1657.23 174.643V85.5312H1581.3V118.979H1604.74V133.749C1601.73 134.4 1598.72 134.888 1595.71 135.214C1592.78 135.539 1589.85 135.702 1586.92 135.702C1575.12 135.702 1566 132.447 1559.57 125.937C1553.22 119.426 1550.05 109.132 1550.05 95.0527C1550.05 88.7051 1551.07 83.0898 1553.1 78.207C1555.14 73.2428 1557.82 69.0518 1561.16 65.6338C1564.5 62.2158 1568.28 59.6117 1572.51 57.8213C1576.82 56.0309 1581.26 55.1357 1585.82 55.1357C1591.19 55.1357 1596.4 56.5192 1601.44 59.2861C1606.57 62.0531 1611.21 66.3662 1615.36 72.2256H1652.1V16.4395C1647.79 14.4049 1643.11 12.4518 1638.06 10.5801C1633.1 8.70833 1627.4 7.04004 1620.97 5.5752C1614.63 4.11035 1607.38 2.93034 1599.25 2.03516C1591.11 1.13997 1581.79 0.692383 1571.29 0.692383C1556.07 0.692383 1542.6 2.64551 1530.89 6.55176C1519.17 10.458 1508.95 15.9919 1500.25 23.1533C1491.13 30.6403 1484.09 40.2432 1479.13 51.9619Z" fill="white"/>
</svg>
