<svg width="682" height="395" viewBox="0 0 682 395" fill="none" xmlns="http://www.w3.org/2000/svg">
<path fill-rule="evenodd" clip-rule="evenodd" d="M311.361 394.154V201.276L396.183 343.485L480.164 201.276V394.154H682V282.458L648.407 276.02V116.734L682 110.296V0H480.164L396.183 150.607L311.361 0H109.525V0.253815H63.1352H56.1231V14.2781H63.1352H109.525V33.739H42.5568H35.5447V47.7633H42.5568H109.525V67.2243H7.01215H0V81.2486H7.01215H109.525V110.296L143.118 116.734V276.02L109.525 282.458V394.154H311.361ZM109.525 81.2486H171.64H178.652V67.2243H171.64H109.525V81.2486ZM109.525 47.7633H207.185H214.197V33.739H207.185H109.525V47.7633ZM109.525 14.2781H227.763H234.775V0.253815H227.763H109.525V14.2781Z" fill="#2222FF"/>
</svg>
