<svg width="532" height="500" viewBox="0 0 532 500" fill="none" xmlns="http://www.w3.org/2000/svg">
<path d="M278.063 183.66H310.078C304.883 162.221 300.946 151.573 299.645 147.979C297.737 142.69 289.49 142.69 289.49 142.69C289.075 142.612 288.647 142.533 288.218 142.462V167.467C288.218 171.118 285.381 174.077 281.872 174.077H278.063V183.66ZM281.872 114.612C285.381 114.612 288.218 117.571 288.218 121.223V125.939C296.408 126.225 302.296 126.647 304.726 126.833C312.98 127.497 314.881 133.443 314.881 133.443C342.816 239.151 333.926 336.934 333.926 336.934C333.926 324.585 333.697 312.772 333.29 301.496C324.907 302.918 317.425 299.938 317.425 299.938L259.018 274.826C259.018 274.826 304.726 292.005 316.789 294.649C325.293 296.507 330.624 295.75 333.04 295.135C328.816 196.945 310.922 141.561 309.807 138.067C308.535 134.108 303.454 132.778 303.454 132.778C299.266 131.563 294.049 130.692 288.218 130.084V137.281C288.661 137.323 289.09 137.359 289.49 137.402C300.917 138.731 302.189 142.033 302.189 142.033C306.277 152.545 309.793 168.681 312.458 183.66H316.789C318.69 186.297 316.789 188.277 316.789 188.277H313.266C316.303 206.185 318.054 221.314 318.054 221.314C315.638 208.372 313.316 197.445 311.172 188.277H273.304V174.077H270.759C267.258 174.077 264.414 171.118 264.414 167.467V141.597C253.808 142.111 245.047 143.355 245.047 143.355V180.394C249.471 181.459 257.746 183.874 257.746 183.874C252.829 183.024 247.92 182.903 245.047 182.931V192.815C255.231 193.629 270.867 197.974 270.867 197.974C265.428 196.638 251.507 196.059 245.047 195.859V204.456C263.084 206.621 283.987 212.946 283.987 212.946C270.581 210.502 252.15 209.444 245.047 209.108V217.012C264.414 219.62 294.993 227.481 294.993 227.481C280.543 224.101 252.865 222.643 245.047 222.286V223.958L258.196 234.049C279.742 237.515 307.263 247.298 307.263 247.298C297.894 244.94 278.242 241.981 266.322 240.287L283.773 253.694L321.234 267.558V279.456L274.89 261.619L234.892 228.582V139.389C242.16 138.703 253.551 137.838 264.414 137.352V128.898C235.657 128.619 205.056 131.463 205.056 131.463C225.273 127.433 246.598 126.025 264.414 125.725V121.223C264.414 117.571 267.258 114.612 270.759 114.612H273.304V105.036H293.621C296.157 107.016 293.621 109.324 293.621 109.324L278.063 109.66V114.612H281.872Z" fill="#150B25"/>
<path d="M215.426 216.905V224.394L195.109 221.314V142.033L217.963 140.275L216.269 180.351L214.997 145.113L201.883 146.435V173.977L207.808 175.063L201.883 176.435V183.56L214.154 184.754L201.883 187.012V194.237L216.026 193.501L215.947 196.788L201.883 197.374V203.777L215.819 204.434L215.719 209.165L201.883 207.858V215.147L215.426 216.905Z" fill="#150B25"/>
<path d="M465.975 336.277V327.244L511.047 322.07L496.126 328.016L521.202 329.33L465.975 336.277Z" fill="#150B25"/>
<path d="M465.975 318.947V310.036L499.306 306.212L484.384 312.158L509.46 313.48L465.975 318.947Z" fill="#150B25"/>
<mask id="mask0_7_168" style="mask-type:luminance" maskUnits="userSpaceOnUse" x="120" y="368" width="168" height="132">
<path d="M287.003 368.943H120.63V499.441H287.003V368.943Z" fill="white"/>
</mask>
<g mask="url(#mask0_7_168)">
<path d="M286.953 497.483L274.89 499.463C227.274 426.127 121.259 369.307 121.259 369.307C232.355 424.141 286.953 497.483 286.953 497.483Z" fill="#150B25"/>
</g>
<path d="M445.237 386.044V412.471L509.989 407.182L438.462 417.759V386.923L445.237 386.044Z" fill="#150B25"/>
<path d="M419.424 392.211C419.424 392.211 422.383 393.097 422.383 397.056C422.383 401.022 421.961 408.069 421.961 408.069C421.961 408.069 420.689 413.793 415.186 414.236L378.369 417.316C378.369 417.316 372.866 417.759 372.444 411.592C372.023 405.424 372.444 400.136 372.444 400.136C372.444 400.136 369.057 394.855 394.877 394.412C394.877 394.412 377.94 396.177 377.518 399.264C377.097 402.344 377.94 410.706 377.94 410.706L413.071 407.633C413.071 407.633 416.03 401.022 412.649 392.654L419.424 392.211Z" fill="#150B25"/>
<path d="M254.366 375.474C254.887 394.741 250.128 400.686 250.128 400.686C253.515 389.238 251.086 375.917 249.177 368.978C246.712 360.01 241.245 373.266 241.245 373.266C242.51 352.57 253.865 357.416 254.366 375.474Z" fill="#150B25"/>
<path d="M260.926 381.534C262.856 381.627 264.271 385.093 264.092 389.288C263.913 393.483 262.212 396.806 260.283 396.72C258.361 396.634 256.939 393.161 257.11 388.966C257.296 384.779 258.997 381.449 260.926 381.534Z" fill="#150B25"/>
<path d="M259.375 358.423C257.875 358.916 255.781 356.422 254.709 352.856C253.63 349.29 253.98 345.996 255.481 345.503C256.981 345.01 259.075 347.511 260.154 351.077C261.233 354.643 260.883 357.937 259.375 358.423Z" fill="#150B25"/>
<path d="M242.453 355.25C241.774 355.057 241.824 352.62 242.56 349.805C243.289 346.982 244.433 344.859 245.111 345.045C245.79 345.238 245.74 347.675 245.011 350.491C244.275 353.314 243.132 355.443 242.453 355.25Z" fill="#150B25"/>
<path d="M254.087 416.487C255.231 416.594 255.952 418.96 255.702 421.775C255.459 424.598 254.344 426.799 253.208 426.692C252.072 426.585 251.35 424.212 251.593 421.396C251.836 418.581 252.958 416.38 254.087 416.487Z" fill="#150B25"/>
<path d="M162.364 327.022C158.941 327.022 156.176 323.328 156.176 318.761C156.176 314.202 158.941 310.507 162.364 310.507C165.78 310.507 168.553 314.202 168.553 318.761C168.553 323.328 165.78 327.022 162.364 327.022Z" fill="#150B25"/>
<mask id="mask1_7_168" style="mask-type:luminance" maskUnits="userSpaceOnUse" x="0" y="0" width="532" height="496">
<path d="M532 0H-1.01943e-05V495.883H532V0Z" fill="white"/>
</mask>
<g mask="url(#mask1_7_168)">
<path d="M302.611 441.106C302.611 441.106 319.233 410.956 312.251 366.055C310.407 365.426 308.621 364.776 306.877 364.126C309.421 393.433 301.767 413.793 301.767 413.793C306.991 385.922 304.147 368.821 302.582 362.454C300.388 361.567 298.294 360.681 296.308 359.795C301.081 390.946 291.184 419.524 291.184 419.524C297.58 391.568 294.314 367.899 292.334 357.994C290.505 357.144 288.818 356.315 287.253 355.536C291.948 400.422 277.22 432.737 277.22 432.737C289.819 394.419 283.966 363.683 280.85 352.177C277.856 350.533 276.162 349.49 276.162 349.49C272.389 334.776 266.129 321.355 260.769 311.55C254.144 311.307 241.167 311.815 237.429 319.097C232.355 329.009 221.564 381.198 232.355 412.914C243.146 444.622 250.764 439.998 257.746 430.751C264.728 421.503 271.081 387.809 265.364 357.415C259.654 327.022 249.499 325.043 246.319 329.666C243.146 334.29 234.892 355.436 234.892 391.775C234.892 391.775 232.984 371.294 237.429 342.88C241.881 314.473 253.937 313.809 264.099 332.968C274.254 352.127 276.798 385.829 270.445 414.893C264.099 443.964 254.573 445.286 254.573 445.286C254.573 445.286 281.029 455.634 302.611 441.106ZM161.249 303.904C149.194 305.219 149.822 309.192 149.822 309.192C149.822 309.192 148.558 328.344 149.822 333.632C151.094 338.914 150.458 339.578 156.812 341.558C163.157 343.544 203.155 340.9 203.155 340.9C195.995 342.229 189.677 343.23 184.125 343.995C194.358 352.27 203.57 370.193 203.57 370.193C194.608 356.393 176.321 346.717 173.484 345.281C158.927 346.753 152.359 346.189 152.359 346.189L107.288 327.022C104.672 337.541 100.727 342.315 97.933 344.466C135.43 358.044 179.966 377.089 224.737 403.002C224.737 403.002 222.829 391.11 222.193 384.5L209.501 387.151C209.501 387.151 203.305 349.604 213.21 317.082L186.647 301.917C186.647 301.917 173.312 302.582 161.249 303.904ZM110.782 294.321C100.627 292.999 100.627 298.616 100.627 298.616C100.627 298.616 100.306 307.534 100.627 313.48C100.942 319.426 103.8 321.741 103.8 321.741L147.285 339.578C146.013 338.256 145.699 335.276 145.699 335.276V331.889L107.609 316.781L145.699 327.479V321.555L124.746 314.802L145.699 318.482V307.863C146.649 302.246 151.73 301.253 151.73 301.253C151.73 301.253 120.944 295.636 110.782 294.321ZM77.2373 281.214C71.0486 281.214 66.0248 294.135 66.0248 310.064C66.0248 321.091 68.4331 330.674 71.9705 335.526C72.1491 335.776 72.3207 336.005 72.5065 336.219C72.5493 336.269 72.5851 336.319 72.628 336.362C72.778 336.541 72.9352 336.713 73.0925 336.87C73.1425 336.92 73.1854 336.97 73.2354 337.02C73.3998 337.177 73.5713 337.334 73.7428 337.477C73.7714 337.506 73.8071 337.534 73.8357 337.563C74.0429 337.727 74.2502 337.885 74.4646 338.027C74.4717 338.035 74.4788 338.035 74.4788 338.035C74.6789 338.163 74.8862 338.278 75.0791 338.378C75.1435 338.406 75.2006 338.435 75.2649 338.463C75.415 338.535 75.5722 338.592 75.7223 338.649C75.7938 338.671 75.8581 338.692 75.9367 338.721C76.0796 338.763 76.2368 338.799 76.3869 338.821C76.4512 338.842 76.5227 338.856 76.587 338.864C76.8085 338.899 77.0229 338.914 77.2373 338.914C77.4517 338.914 77.6661 338.899 77.8805 338.871C77.9234 338.864 77.9662 338.849 78.0163 338.842C78.1878 338.814 78.3593 338.771 78.5308 338.721C78.5594 338.713 78.5951 338.699 78.6309 338.692C78.8167 338.628 79.0025 338.556 79.1883 338.478C79.2026 338.47 79.2169 338.463 79.2311 338.456C79.4384 338.363 79.6456 338.256 79.8457 338.127C84.7767 335.112 88.457 323.699 88.457 310.064C88.457 294.135 83.4403 281.214 77.2373 281.214ZM-1.01943e-05 315.795C-1.01943e-05 315.795 26.6129 320.991 66.9752 333.904C63.7451 327.529 62.8518 319.754 62.8518 319.754L57.7708 320.419C57.6136 313.816 58.0709 308.163 58.8356 303.375L47.1371 303.239V287.217L63.545 287.367C65.2458 283.773 66.6608 282.1 66.6608 282.1L47.6159 280.114L50.7888 127.497L52.6969 274.825L140.94 285.109V15.1785C86.7634 46.8938 51.4248 90.5006 51.4248 90.5006C80.203 47.3298 142.626 6.37426 142.626 6.37426C266.214 -6.83927 355.936 4.60912 355.936 4.60912C272.139 -2.43715 151.094 13.199 151.094 13.199V285.395H180.723V136.744L212.881 97.1038C212.881 97.1038 293.721 78.6092 436.347 86.5344C436.347 86.5344 327.158 88.2996 285.681 93.5807C285.681 93.5807 302.611 97.99 316.153 103.271C316.153 103.271 265.364 92.7017 215.426 100.627L186.647 138.51V293.963L227.917 310.821C233.213 308.942 242.367 306.669 257.31 305.483C253.508 299.094 250.764 295.307 250.764 295.307C238.701 289.361 192.357 276.812 192.357 276.812C197.517 277.541 202.834 278.477 208.065 279.513L219.656 264.921L224.737 166.473L226.002 265.578L214.404 280.835C234.935 285.266 252.665 290.683 252.665 290.683C266 305.219 281.236 341.558 281.236 341.558C332.654 368.649 369.479 360.06 369.479 360.06L391.06 357.294V348.754L366.306 351.47V340.9C366.306 340.9 413.278 338.914 436.775 334.29C436.775 334.29 440.577 329.009 434.867 319.097L379.641 321.741C379.641 321.741 384.35 321.119 391.06 320.262V287.61C353.128 287.896 350.012 256.552 350.012 256.552C350.012 256.552 327.158 138.51 323.771 121.766C320.383 105.036 339.007 105.036 339.007 105.036C387.259 98.869 478.667 104.157 478.667 104.157C449.896 103.271 369.479 106.794 347.468 108.559C325.457 110.317 330.538 121.766 330.538 121.766C330.538 121.766 337.442 158.055 344.274 192.536C349.012 194.101 356.144 194.887 356.144 194.887H403.759C403.759 194.887 361.861 200.175 356.144 199.51C352.806 199.125 348.39 198.288 345.288 197.66C346.06 201.533 346.825 205.363 347.575 209.087C354.643 210.694 366.942 212.067 366.942 212.067L450.103 210.744C450.103 210.744 375.188 217.348 365.67 217.348C359.245 217.348 352.535 216.147 348.854 215.361C349.569 218.906 350.276 222.307 350.941 225.537C360.188 228.582 374.56 228.582 374.56 228.582L484.384 226.602C484.384 226.602 381.542 234.527 372.023 235.185C365.219 235.664 356.801 234.106 352.549 233.184C352.842 234.563 353.121 235.899 353.399 237.172C353.985 239.901 354.693 242.395 355.486 244.704C360.739 245.697 370.758 247.434 378.369 247.741C387.266 248.105 512.948 243.782 512.948 243.782C512.948 243.782 398.671 252.836 385.351 253.694C373.774 254.43 363.847 253.065 358.616 252.1C368.921 271.831 386.408 270.645 386.408 270.645L509.989 260.954L483.748 268.88H517.607L491.366 275.047H532C532 275.047 439.734 283.858 396.57 287.382C396.199 287.41 395.863 287.41 395.505 287.439V319.69C411.985 317.596 435.539 314.702 436.775 315.131C438.676 315.795 442.485 310.507 450.739 342.222L395.505 348.268V356.729L519.301 340.9L498.348 348.168L512.319 348.826L505.966 351.47H526.919C526.919 351.47 398.686 369.971 359.324 373.266C347.111 374.295 334.469 372.394 322.842 369.278C341.501 383.256 374.56 379.876 374.56 379.876L471.692 367.985C471.692 367.985 405.66 379.876 367.571 384.5C341.444 387.673 326.665 381.827 319.962 377.847V429.429C319.962 429.429 330.117 440.663 365.67 438.019C401.223 435.374 514.227 418.202 514.227 418.202L457.092 432.073L488.829 430.751L442.485 439.998H467.247C467.247 439.998 388.524 453.876 352.971 454.534L299.016 450.575C299.016 450.575 330.753 476.995 344.088 490.873L298.38 495.496C298.38 495.496 215.211 383.178 -1.01943e-05 315.795Z" fill="#150B25"/>
</g>
<path d="M76.8157 328.673C73.3069 328.673 70.4698 320.834 70.4698 311.165C70.4698 301.503 73.3069 293.663 76.8157 293.663C78.4522 293.663 79.9458 295.378 81.0678 298.194C80.4746 297.408 79.8172 296.958 79.124 296.958C76.537 296.958 74.436 302.954 74.436 310.343C74.436 317.732 76.537 323.721 79.124 323.721C80.3031 323.721 81.3822 322.449 82.2112 320.369C81.0964 325.35 79.1025 328.673 76.8157 328.673Z" fill="#150B25"/>
<path d="M162.521 204.577L159.977 21.3459C215.847 10.7766 310.436 12.5417 310.436 12.5417C217.748 15.8433 165.694 25.9768 165.694 25.9768L162.521 204.577Z" fill="#150B25"/>
<path d="M134.586 31.4794L133.743 136.309L130.777 38.5256C104.122 49.5381 65.6031 84.3335 65.6031 84.3335C92.266 54.3833 134.586 31.4794 134.586 31.4794Z" fill="#150B25"/>
<path d="M58.4068 269.766L58.8356 178.15L61.7942 264.921C81.6895 264.478 131.206 270.645 131.206 270.645C79.5671 267.122 58.4068 269.766 58.4068 269.766Z" fill="#150B25"/>
<path d="M90.5724 122.652V112.519C104.115 131.464 111.311 154.367 111.311 154.367L113.855 145.113C124.01 173.741 128.241 227.481 128.241 227.481C123.16 187.834 114.277 163.172 114.277 163.172L112.154 169.339C107.08 147.757 95.2318 131.02 95.2318 131.02L94.803 138.946C81.6895 109.875 58.8356 98.4261 58.8356 98.4261C79.1454 107.238 90.5724 122.652 90.5724 122.652Z" fill="#150B25"/>
<path d="M110.46 195.766C104.536 179.908 96.4966 167.138 96.4966 167.138L95.6533 176.828C83.7547 148.579 66.6393 136.316 62.6516 133.75C84.0048 146.849 91.8443 162.293 91.8443 162.293V151.723C104.536 172.426 110.46 195.766 110.46 195.766Z" fill="#150B25"/>
</svg>
